<?xml version="1.0" encoding="UTF-8" standalone="no"?>
<!-- Created with Inkscape (http://www.inkscape.org/) -->

<svg
   width="60mm"
   height="60mm"
   viewBox="-5 -5 60 60"
   version="1.1"
   id="svg1"
   sodipodi:docname="CMHC Jongesn O8.svg"
   inkscape:version="1.4.2 (f4327f4, 2025-05-13)"
   xmlns:inkscape="http://www.inkscape.org/namespaces/inkscape"
   xmlns:sodipodi="http://sodipodi.sourceforge.net/DTD/sodipodi-0.dtd"
   xmlns="http://www.w3.org/2000/svg"
   xmlns:svg="http://www.w3.org/2000/svg">
  <sodipodi:namedview
     id="namedview1"
     pagecolor="#ffffff"
     bordercolor="#000000"
     borderopacity="0.25"
     inkscape:showpageshadow="2"
     inkscape:pageopacity="0.0"
     inkscape:pagecheckerboard="0"
     inkscape:deskcolor="#d1d1d1"
     inkscape:document-units="mm"
     inkscape:lockguides="true"
     inkscape:zoom="5.6568543"
     inkscape:cx="78.04691"
     inkscape:cy="100.32077"
     inkscape:window-width="2880"
     inkscape:window-height="1694"
     inkscape:window-x="-11"
     inkscape:window-y="-11"
     inkscape:window-maximized="1"
     inkscape:current-layer="layer1" />
  <defs
     id="defs1" />
  <g
     inkscape:label="Layer 1"
     inkscape:groupmode="layer"
     id="layer1"
     transform="translate(-76.479377,-90.151991)">
    <g
       id="g3"
       transform="translate(-0.00786982,-0.03215472)"
       inkscape:label="Round Logo">
      <path
         id="path1"
         style="fill:#cf0612;fill-opacity:1;stroke-width:0.128973"
         d="m 101.4794,90.215667 a 24.999966,24.999976 0 0 0 -25.000008,25.000003 24.999966,24.999976 0 0 0 25.000008,25 z" />
      <path
         id="path1-1"
         style="fill:#ffffff;fill-opacity:1;stroke-width:0.128973"
         d="m 101.47939,90.215668 a 24.999968,24.999977 0 0 1 25,25.000002 24.999968,24.999977 0 0 1 -25,25 z" />
      <ellipse
         style="fill:none;fill-opacity:1;stroke:#000000;stroke-width:0.128641;stroke-opacity:1"
         id="path1-8"
         cx="101.47939"
         cy="115.21567"
         rx="24.93568"
         ry="24.935688" />
    </g>
    <text
       xml:space="preserve"
       style="font-style:normal;font-variant:normal;font-weight:normal;font-stretch:normal;font-size:3.175px;font-family:'Arial Rounded MT Bold';-inkscape-font-specification:'Arial Rounded MT Bold, ';text-align:start;writing-mode:lr-tb;direction:ltr;text-anchor:start;fill:#000000;fill-opacity:1;stroke:none;stroke-width:0.264583;stroke-opacity:1"
       x="124.89319"
       y="90.71788"
       id="text5"><tspan
         sodipodi:role="line"
         id="tspan5"
         style="stroke-width:0.264583" /></text>
    <path
       id="text8"
       style="font-style:normal;font-variant:normal;font-weight:normal;font-stretch:normal;font-size:22.5778px;font-family:'Yuji Boku';-inkscape-font-specification:'Yuji Boku, Normal';font-variant-ligatures:normal;font-variant-caps:normal;font-variant-numeric:normal;font-variant-east-asian:normal;text-align:start;letter-spacing:0.529167px;writing-mode:lr-tb;direction:ltr;text-anchor:start;fill:#ffffff;fill-opacity:1;stroke:none;stroke-width:0.264583;stroke-opacity:1"
       d="M 101.46049 122.26652 C 100.30814 122.41638 99.241748 122.69534 98.261722 123.10368 C 97.825217 123.2843 97.343664 123.46514 96.816849 123.64577 C 96.305085 123.82639 95.913694 124.02925 95.64276 124.25503 C 95.432034 124.51091 95.273733 124.78192 95.16837 125.0679 C 95.078059 125.35389 95.025809 125.64026 95.010757 125.92625 C 94.995705 126.54337 95.161175 127.14531 95.507368 127.73234 C 95.868613 128.30431 96.297399 128.78586 96.794111 129.17721 C 97.140304 129.44814 97.554236 129.70429 98.035896 129.94512 C 98.532607 130.18595 98.916313 130.45644 99.187246 130.75748 L 99.074592 130.84791 C 99.014384 130.89307 98.931391 130.90844 98.826028 130.89339 C 98.645406 131.19442 98.367234 131.52536 97.990937 131.88661 C 97.61464 132.24785 97.253475 132.62387 96.907282 133.01522 C 96.651401 133.33131 96.440333 133.64739 96.274763 133.96348 C 96.109192 134.27957 96.041571 134.60334 96.071674 134.93448 C 96.086726 134.99469 96.109267 135.06231 96.13937 135.13757 L 96.229804 135.31844 C 96.290012 135.4238 96.342779 135.5365 96.387934 135.65692 C 96.448142 135.76228 96.462996 135.89036 96.432893 136.04087 C 96.613515 136.20645 96.771815 136.36475 96.907282 136.51526 C 97.042749 136.65073 97.230759 136.74089 97.471589 136.78605 C 97.682315 136.78605 97.998399 136.81627 98.419851 136.87648 C 98.841304 136.92164 99.27009 136.98157 99.706595 137.05683 C 100.1431 137.11704 100.48172 137.16981 100.72255 137.21496 C 100.89719 137.14948 101.1434 137.10791 101.46049 137.08991 L 101.46049 135.79696 C 101.28872 135.84159 101.11065 135.87781 100.92616 135.90548 C 100.33914 135.99579 99.781758 136.04087 99.254943 136.04087 C 99.044216 136.08603 98.841352 136.10857 98.645677 136.10857 C 98.450003 136.09352 98.246622 136.07866 98.035896 136.06361 L 97.81007 136.06361 C 97.73481 136.04856 97.659503 136.04087 97.584244 136.04087 C 97.358466 135.8452 97.200682 135.61928 97.110371 135.3634 C 97.035111 135.09246 97.072507 134.79175 97.223025 134.46061 C 97.192922 134.27999 97.268229 134.06175 97.448851 133.80587 C 97.629474 133.54999 97.863081 133.2713 98.149067 132.97026 C 98.450104 132.66922 98.750817 132.37568 99.051854 132.08969 C 99.232477 131.92412 99.405632 131.75865 99.571202 131.59308 C 99.736773 131.42751 99.879702 131.2769 100.00012 131.14143 C 100.19579 131.29195 100.43657 131.43488 100.72255 131.57035 C 100.98784 131.68205 101.23406 131.77449 101.46049 131.84733 L 101.46049 129.16274 C 101.3501 129.23808 101.23964 129.31812 101.12925 129.40304 C 100.93357 129.5385 100.71534 129.60613 100.47451 129.60613 C 100.30894 129.60613 100.15832 129.56873 100.02285 129.49347 C 99.902439 129.40316 99.767196 129.29763 99.616678 129.17721 C 99.436055 129.02669 99.217302 128.87608 98.96142 128.72556 C 98.720591 128.55999 98.389652 128.46214 97.968199 128.43204 C 97.832733 128.23636 97.682118 128.06321 97.516547 127.91269 C 97.350977 127.74712 97.155281 127.61187 96.929503 127.50651 C 96.884348 127.07001 96.982195 126.61099 97.223025 126.12933 C 97.463855 125.64768 97.810166 125.27114 98.261722 125.0002 C 98.622966 124.78948 99.10452 124.57124 99.706595 124.34546 C 100.26521 124.12202 100.85005 123.93103 101.46049 123.77237 L 101.46049 122.26652 z " />
    <path
       id="text8-1"
       style="font-style:normal;font-variant:normal;font-weight:normal;font-stretch:normal;font-size:22.5778px;font-family:'Yuji Boku';-inkscape-font-specification:'Yuji Boku, Normal';font-variant-ligatures:normal;font-variant-caps:normal;font-variant-numeric:normal;font-variant-east-asian:normal;text-align:start;letter-spacing:0.529167px;writing-mode:lr-tb;direction:ltr;text-anchor:start;fill:#cf0612;fill-opacity:1;stroke:none;stroke-width:0.264583;stroke-opacity:1"
       d="M 102.80201 122.17557 C 102.47652 122.17369 102.15204 122.18976 101.82843 122.22363 C 101.71264 122.23575 101.59785 122.24929 101.48375 122.26394 L 101.48375 123.76669 C 101.52333 123.75647 101.56281 123.74615 101.6026 123.7362 C 102.27994 123.55558 102.88956 123.46541 103.43143 123.46541 C 103.46154 123.57078 103.5143 123.65377 103.58956 123.71398 L 103.86035 123.89433 C 104.11623 123.77391 104.36469 123.72883 104.60552 123.75894 C 104.84635 123.77399 105.06459 123.84161 105.26026 123.96203 C 105.54625 124.11254 105.77985 124.32361 105.96048 124.59454 C 106.1411 124.85043 106.2538 125.10606 106.29896 125.36194 C 105.74204 126.17474 105.04942 126.85199 104.22156 127.39386 C 103.39371 127.93572 102.55868 128.47004 101.71577 128.99686 C 101.63846 129.04444 101.56106 129.09444 101.48375 129.14672 L 101.48375 131.85508 C 101.49337 131.85814 101.50314 131.8614 101.51269 131.86439 C 101.88898 131.96975 102.31008 132.1803 102.77669 132.49639 C 103.25835 132.81248 103.59698 133.19618 103.79265 133.64774 C 103.71739 134.03909 103.56729 134.37823 103.34151 134.66421 C 103.11574 134.9502 102.84473 135.18329 102.52864 135.36391 C 102.21165 135.54797 101.86326 135.69058 101.48375 135.79128 L 101.48375 137.08887 C 101.59729 137.08292 101.71976 137.07957 101.85117 137.07957 C 102.36293 137.06452 102.84448 137.00458 103.29604 136.89922 C 103.86801 136.76375 104.36494 136.57574 104.78639 136.33491 C 105.20784 136.09408 105.59155 135.83077 105.93774 135.54478 C 105.93774 135.52973 105.92288 135.4995 105.89278 135.45435 C 105.86268 135.37909 105.84014 135.29609 105.82508 135.20578 C 105.81003 135.11547 105.90736 135.07039 106.11809 135.07039 L 105.9827 134.12213 C 105.95259 133.80604 105.79481 133.56526 105.50882 133.39969 C 105.58408 133.23412 105.52363 133.05328 105.32796 132.85761 C 105.13228 132.64688 104.95196 132.46656 104.78639 132.31604 L 104.53782 132.06747 C 104.25184 131.70623 103.9209 131.42806 103.5446 131.23238 C 103.18336 131.03671 102.8519 130.87841 102.55087 130.75799 C 102.24983 130.63758 102.04696 130.51719 101.9416 130.39677 C 102.22759 130.171 102.53598 129.98299 102.86713 129.83247 C 103.21332 129.68195 103.55194 129.51648 103.88308 129.33586 C 104.21422 129.15523 104.49291 128.91394 104.71869 128.6129 C 104.98963 128.6129 105.19249 128.53811 105.32796 128.38759 C 105.46342 128.23708 105.66681 128.07109 105.93774 127.89047 C 105.98289 127.86036 106.03566 127.83065 106.09587 127.80055 C 106.17113 127.75539 106.2536 127.70263 106.34392 127.64242 C 106.55464 127.52201 106.79542 127.37908 107.06635 127.21351 C 107.33729 127.03288 107.56321 126.85204 107.74383 126.67142 C 107.92445 126.4908 107.99976 126.32533 107.96966 126.17481 C 108.19543 126.0845 108.33836 125.94874 108.39857 125.76812 C 108.45878 125.57244 108.54177 125.3998 108.64713 125.24929 C 108.66219 125.09877 108.62427 124.93278 108.53396 124.75216 C 108.4587 124.55648 108.36086 124.3987 108.24044 124.27828 C 108.12003 124.14282 108.00732 124.09774 107.90196 124.14289 C 107.8568 123.88701 107.72873 123.69848 107.518 123.57807 C 107.32233 123.4426 107.09692 123.34475 106.84104 123.28455 C 106.58516 123.20929 106.35155 123.1345 106.14083 123.05924 C 105.9301 122.96893 105.80203 122.84085 105.75687 122.67528 C 104.76345 122.3479 103.7785 122.18122 102.80201 122.17557 z M 108.19548 124.68446 C 108.33095 124.81993 108.36118 125.00846 108.28592 125.24929 C 108.21066 125.47506 108.0749 125.71584 107.87922 125.97172 C 107.6986 126.21255 107.5029 126.43079 107.29218 126.62646 C 107.08145 126.80708 106.90881 126.91979 106.77335 126.96494 C 106.7884 126.88968 106.84065 126.79184 106.93096 126.67142 C 107.02127 126.55101 107.1268 126.41576 107.24722 126.26524 C 107.41279 126.05452 107.57109 125.84345 107.72161 125.63272 C 107.87213 125.422 107.92438 125.27138 107.87922 125.18107 C 107.99964 125.15097 108.07494 125.09103 108.10505 125.00072 C 108.1502 124.89536 108.18043 124.78982 108.19548 124.68446 z " />
    <text
       xml:space="preserve"
       style="font-style:normal;font-variant:normal;font-weight:normal;font-stretch:normal;font-size:22.5778px;font-family:'Yuji Boku';-inkscape-font-specification:'Yuji Boku, Normal';font-variant-ligatures:normal;font-variant-caps:normal;font-variant-numeric:normal;font-variant-east-asian:normal;text-align:start;letter-spacing:0.529167px;writing-mode:lr-tb;direction:ltr;text-anchor:start;fill:#000000;fill-opacity:1;stroke:none;stroke-width:0.264583;stroke-opacity:1"
       x="92.352646"
       y="136.90088"
       id="text8-1-1"><tspan
         sodipodi:role="line"
         id="tspan8-6-8"
         style="font-style:normal;font-variant:normal;font-weight:normal;font-stretch:normal;font-size:22.5778px;font-family:'Yuji Boku';-inkscape-font-specification:'Yuji Boku, Normal';font-variant-ligatures:normal;font-variant-caps:normal;font-variant-numeric:normal;font-variant-east-asian:normal;fill:#000000;stroke:none;stroke-width:0.264583;stroke-opacity:1"
         x="92.352646"
         y="136.90088"
         dx="0">8</tspan></text>
    <g
       id="layer1-5"
       transform="matrix(0.16411497,0,0,0.16411497,44.62092,89.490381)"
       style="fill:#1a1a1a">
      <path
         style="fill:#1a1a1a"
         d="m 57.888916,166.60251 c -1.35793,-0.54317 -1.9848,-0.88047 -2.75166,-1.48058 l -0.71967,-0.56318 v -0.56667 c 0,-0.42447 0.24585,-0.89965 0.97974,-1.89366 0.53886,-0.72985 1.15467,-1.61275 1.36848,-1.962 0.2138,-0.34925 0.44229,-0.635 0.50775,-0.635 0.0655,0 0.24397,-0.20955 0.3967,-0.46567 0.15273,-0.25611 0.70519,-0.99906 1.22769,-1.651 0.5225,-0.65193 1.37595,-1.83303 1.89655,-2.62466 1.23211,-1.87357 1.76534,-2.6574 2.9951,-4.40267 1.05894,-1.50284 5.72466,-8.41794 8.626,-12.78467 0.9282,-1.397 1.84833,-2.7686 2.04473,-3.048 0.1964,-0.2794 1.40992,-2.0701 2.6967,-3.97933 1.28677,-1.90923 3.30716,-4.90661 4.48974,-6.66083 1.18259,-1.75423 2.26445,-3.36526 2.40415,-3.58008 0.1397,-0.21482 0.5207,-0.79043 0.84667,-1.27914 0.65842,-0.98714 0.66436,-1.19427 0.0556,-1.93705 -0.2312,-0.2821 -0.92397,-1.2368 -1.5395,-2.12157 -0.61552,-0.88477 -1.85044,-2.59927 -2.74426,-3.81 -0.89382,-1.21073 -1.92625,-2.62043 -2.29429,-3.13267 -0.36803,-0.51223 -0.72942,-1.00753 -0.80309,-1.10066 -0.23969,-0.30304 -5.77466,-7.859408 -9.42666,-12.869338 -1.01835,-1.397 -2.88856,-3.9497 -4.15603,-5.67267 -1.26747,-1.72297 -3.20012,-4.35187 -4.29478,-5.842 -2.08049,-2.83214 -3.4821,-5.05995 -3.99502,-6.35 -0.16664,-0.4191 -0.38007,-0.9525 -0.47429,-1.18533 -1.68258,-4.15776 0.359942,-9.448528 3.77601,-11.588842 3.166413,-1.983893 13.53498,-2.415708 13.53498,4.097377 0,1.275817 -0.831163,2.470183 -1.31496,2.689705 l -1.065889,0.418075 -1.429151,0.04078 c -1.06819,-0.0143 -2.2995,-0.13887 -2.88684,-0.29212 -2.38285,-0.62175 -3.36193,0.70909 -2.06833,2.81146 0.52915,0.85998 3.11306,4.7338 8.61933,12.92216 1.44313,2.14607 2.78168,4.12727 2.97455,4.40267 0.38569,0.5507 1.56031,2.31719 1.82796,2.74902 0.0931,0.15026 0.22875,0.35357 0.30138,0.45178 0.32731,0.44263 2.6947,3.98884 3.1714,4.75058 0.29142,0.46567 1.47407,2.218273 2.62812,3.894673 1.15404,1.6764 2.975424,4.41365 4.09468,6.051 3.260267,4.76941 2.180191,3.72338 3.447386,1.89869 0.279466,-0.40241 2.557284,-3.96613 2.935304,-4.47836 0.37801,-0.51223 1.76061,-2.53153 3.07243,-4.48733 4.387614,-6.541513 6.933154,-10.347743 7.103964,-10.622223 0.0931,-0.14966 0.96366,-1.44038 1.9345,-2.86828 8.51054,-12.51713 10.61194,-15.8171 10.4521,-16.41365 -0.33232,-1.24029 -0.78978,-1.35477 -3.66593,-0.91743 -5.17508,0.78691 -7.66026,-2.27519 -4.78351,-5.893977 0.36031,-0.453249 1.9362,-1.63845 2.17855,-1.63845 0.0619,0 0.42568,-0.143909 0.80841,-0.319797 2.41947,-1.111885 6.11995,-0.82182 9.50122,0.744762 2.49602,1.156438 4.90606,5.438084 4.59197,8.158032 -0.23505,2.03547 -0.31547,2.37617 -0.91005,3.85566 -1.03207,2.5681 -2.02855,4.11088 -6.73112,10.42134 -0.24291,0.32597 -1.27104,1.73567 -2.28473,3.13267 -2.01396,2.7755 -2.2539,3.1037 -4.45666,6.096 -0.82272,1.1176 -1.60448,2.1844 -1.73725,2.37067 -0.13276,0.18627 -1.09852,1.50618 -2.14611,2.933153 -1.0476,1.42696 -2.81912,3.84707 -3.93672,5.37801 -1.1176,1.53094 -2.870204,3.9234 -3.894674,5.31656 -1.02446,1.39317 -2.31986,3.19156 -2.87866,3.99641 -0.5588,0.80486 -1.22555,1.71265 -1.48167,2.01731 -0.72231,0.85923 -0.41421,1.44968 4.2657,8.17491 0.47115,0.67707 0.85663,1.2707 0.85663,1.31919 0,0.0922 0.693244,1.11293 0.855614,1.2598 0.0515,0.0466 0.27606,0.38946 0.49906,0.762 0.223,0.37253 0.44851,0.71543 0.50113,0.762 0.0526,0.0466 0.68196,0.96096 1.39855,2.032 0.71658,1.07103 1.66815,2.48786 2.1146,3.1485 0.44645,0.66065 0.88792,1.3246 0.98105,1.47546 0.0931,0.15085 1.69334,2.52819 3.556,5.28298 1.86267,2.75479 3.61148,5.36743 3.88624,5.80588 0.27477,0.43845 0.92247,1.38114 1.43934,2.09488 0.51686,0.71373 1.0358,1.43763 1.15318,1.60866 0.11738,0.17104 0.57458,0.82343 1.016,1.44978 0.71417,1.01337 1.85713,2.72867 2.32658,3.49161 0.0931,0.15137 0.77893,1.06339 1.524,2.02673 0.74506,0.96334 1.60929,2.10747 1.92049,2.54252 0.31121,0.43505 0.84307,1.172 1.18193,1.63767 1.56975,2.1572 1.38274,2.90205 -1.0105,4.0247 -2.4694,1.15838 -3.0473,1.19038 -3.46452,0.19184 -0.14114,-0.33781 -0.43467,-0.89133 -0.65227,-1.23004 -0.2176,-0.33871 -1.10174,-1.75798 -1.96476,-3.15392 -0.86303,-1.39595 -1.89957,-3.01083 -2.30342,-3.58862 -0.40386,-0.5778 -0.73429,-1.1193 -0.73429,-1.20334 0,-0.084 -0.1524,-0.29072 -0.33866,-0.45929 -0.18627,-0.16857 -0.33867,-0.37014 -0.33867,-0.44793 0,-0.0778 -0.3429,-0.64231 -0.762,-1.25446 -0.4191,-0.61216 -0.762,-1.14588 -0.762,-1.18603 0,-0.0402 -0.43815,-0.67271 -0.97367,-1.40566 -0.53551,-0.73295 -1.92616,-2.64092 -3.09033,-4.23993 -1.16417,-1.599 -3.06917,-4.19785 -4.23333,-5.77522 -1.89713,-2.57048 -3.567834,-4.85402 -8.080354,-11.04432 -0.76542,-1.05002 -1.46377,-1.99419 -1.55187,-2.09816 -0.0881,-0.10397 -0.45245,-0.6075 -0.80966,-1.11894 -0.3572,-0.51144 -0.82195,-1.15027 -1.03278,-1.41963 -0.21082,-0.26935 -0.73265,-0.96597 -1.15962,-1.54806 -0.69047,-0.94131 -1.42039,-1.40694 -1.42039,-0.90609 0,0.0837 -0.70485,1.10281 -1.56633,2.26463 -0.86149,1.16182 -1.68064,2.27996 -1.82034,2.48475 -0.1397,0.2048 -1.0922,1.50258 -2.11666,2.88396 -1.02447,1.38138 -1.97697,2.67819 -2.11667,2.88181 -0.1397,0.20362 -1.18787,1.6396 -2.32926,3.19108 -1.14139,1.55147 -2.77969,3.78945 -3.64066,4.97328 -0.86098,1.18382 -2.59491,3.54602 -3.85319,5.24933 -1.25828,1.7033 -2.47748,3.38214 -2.70934,3.73076 -0.23185,0.34862 -0.4787,0.63436 -0.54855,0.635 -0.0699,6.4e-4 -0.127,0.072 -0.127,0.15852 0,0.0865 -0.2925,0.6009 -0.64999,1.143 -2.45512,3.72294 -4.63273,7.06278 -5.16934,7.92831 -0.34644,0.5588 -0.94238,1.5113 -1.32431,2.11667 -0.38193,0.60536 -0.94139,1.55786 -1.24324,2.11666 -0.63718,1.17954 -0.90034,1.26953 -2.19645,0.75109 z"
         id="path1-4"
         sodipodi:nodetypes="sscssssssssssssssssssssssscsssccssssccssssssccssssssssssssssssssssscsssssssssssssssssssssssssssssssssssssssssssssss" />
    </g>
  </g>
  <g
     id="g4"
     inkscape:label="Dot"
     transform="matrix(-0.1,0,0,0.10000001,31.035004,16.518736)">
    <path
       id="path1-6"
       style="fill:#cf0612;fill-opacity:1;stroke-width:0.128973"
       d="m 60.428544,91.877586 a 24.999966,24.999976 0 0 0 -25.00001,25.000004 24.999966,24.999976 0 0 0 25.00001,24.99999 z" />
    <path
       id="path1-1-8"
       style="fill:#ffffff;fill-opacity:1;stroke-width:0.128973"
       d="m 60.428534,91.877587 a 24.999968,24.999977 0 0 1 25,25.000003 24.999968,24.999977 0 0 1 -25,24.99999 z" />
  </g>
  <text
     xml:space="preserve"
     style="font-style:normal;font-variant:normal;font-weight:normal;font-stretch:normal;font-size:11.2889px;font-family:'Covered By Your Grace';-inkscape-font-specification:'Covered By Your Grace, Normal';font-variant-ligatures:normal;font-variant-caps:normal;font-variant-numeric:normal;font-variant-east-asian:normal;text-align:start;letter-spacing:0px;writing-mode:lr-tb;direction:ltr;text-anchor:start;fill:#000000;fill-opacity:1;stroke:none;stroke-width:0.264583;stroke-opacity:1"
     x="17.410881"
     y="24.601374"
     id="text7-7-8"><tspan
       sodipodi:role="line"
       id="tspan7-1-2"
       style="font-style:normal;font-variant:normal;font-weight:normal;font-stretch:normal;font-size:11.2889px;font-family:'Covered By Your Grace';-inkscape-font-specification:'Covered By Your Grace, Normal';font-variant-ligatures:normal;font-variant-caps:normal;font-variant-numeric:normal;font-variant-east-asian:normal;letter-spacing:0px;fill:#000000;stroke-width:0.264583"
       x="17.410881"
       y="24.601374">Onder</tspan></text>
  <text
     xml:space="preserve"
     style="font-style:normal;font-variant:normal;font-weight:normal;font-stretch:normal;font-size:11.2889px;font-family:'Covered By Your Grace';-inkscape-font-specification:'Covered By Your Grace, Normal';font-variant-ligatures:normal;font-variant-caps:normal;font-variant-numeric:normal;font-variant-east-asian:normal;text-align:start;letter-spacing:0px;writing-mode:lr-tb;direction:ltr;text-anchor:start;fill:#ffffff;fill-opacity:1;stroke:none;stroke-width:0.264583;stroke-opacity:1"
     x="16.949131"
     y="24.221245"
     id="text7-5"><tspan
       sodipodi:role="line"
       id="tspan7-5"
       style="font-style:normal;font-variant:normal;font-weight:normal;font-stretch:normal;font-size:11.2889px;font-family:'Covered By Your Grace';-inkscape-font-specification:'Covered By Your Grace, Normal';font-variant-ligatures:normal;font-variant-caps:normal;font-variant-numeric:normal;font-variant-east-asian:normal;letter-spacing:0px;stroke-width:0.264583"
       x="16.949131"
       y="24.221245">On<tspan
   style="font-style:normal;font-variant:normal;font-weight:normal;font-stretch:normal;font-size:11.2889px;font-family:'Covered By Your Grace';-inkscape-font-specification:'Covered By Your Grace, Normal';font-variant-ligatures:normal;font-variant-caps:normal;font-variant-numeric:normal;font-variant-east-asian:normal;letter-spacing:0px;fill:#cf0612;fill-opacity:1"
   id="tspan4-17">der</tspan></tspan></text>
  <text
     xml:space="preserve"
     style="font-style:normal;font-variant:normal;font-weight:normal;font-stretch:normal;font-size:11.2889px;font-family:'Covered By Your Grace';-inkscape-font-specification:'Covered By Your Grace, Normal';font-variant-ligatures:normal;font-variant-caps:normal;font-variant-numeric:normal;font-variant-east-asian:normal;text-align:start;letter-spacing:0px;writing-mode:lr-tb;direction:ltr;text-anchor:start;fill:#1a1a1a;fill-opacity:1;stroke:none;stroke-width:0.249994;stroke-opacity:1"
     x="8.542944"
     y="15.353805"
     id="text118-1"><tspan
       sodipodi:role="line"
       id="tspan118-1"
       style="font-style:normal;font-variant:normal;font-weight:normal;font-stretch:normal;font-size:11.2889px;font-family:'Covered By Your Grace';-inkscape-font-specification:'Covered By Your Grace, Normal';font-variant-ligatures:normal;font-variant-caps:normal;font-variant-numeric:normal;font-variant-east-asian:normal;letter-spacing:0px;fill:#000000;stroke-width:0.249994"
       x="8.542944"
       y="15.353805">JONGENS</tspan></text>
  <text
     xml:space="preserve"
     style="font-style:normal;font-variant:normal;font-weight:normal;font-stretch:normal;font-size:11.2889px;font-family:'Covered By Your Grace';-inkscape-font-specification:'Covered By Your Grace, Normal';font-variant-ligatures:normal;font-variant-caps:normal;font-variant-numeric:normal;font-variant-east-asian:normal;text-align:start;letter-spacing:0px;writing-mode:lr-tb;direction:ltr;text-anchor:start;fill:#1a1a1a;fill-opacity:1;stroke:none;stroke-width:0.249994;stroke-opacity:1"
     x="7.9964638"
     y="15.042138"
     id="text118-8-5"><tspan
       sodipodi:role="line"
       id="tspan118-8-2"
       style="font-style:normal;font-variant:normal;font-weight:normal;font-stretch:normal;font-size:11.2889px;font-family:'Covered By Your Grace';-inkscape-font-specification:'Covered By Your Grace, Normal';font-variant-ligatures:normal;font-variant-caps:normal;font-variant-numeric:normal;font-variant-east-asian:normal;letter-spacing:0px;fill:#000000;stroke-width:0.249994"
       x="7.9964638"
       y="15.042138"><tspan
         style="font-style:normal;font-variant:normal;font-weight:normal;font-stretch:normal;font-size:11.2889px;font-family:'Covered By Your Grace';-inkscape-font-specification:'Covered By Your Grace, Normal';font-variant-ligatures:normal;font-variant-caps:normal;font-variant-numeric:normal;font-variant-east-asian:normal;letter-spacing:0px;fill:#ffffff"
         id="tspan3-7">JONG</tspan><tspan
         style="font-style:normal;font-variant:normal;font-weight:normal;font-stretch:normal;font-size:11.2889px;font-family:'Covered By Your Grace';-inkscape-font-specification:'Covered By Your Grace, Normal';font-variant-ligatures:normal;font-variant-caps:normal;font-variant-numeric:normal;font-variant-east-asian:normal;letter-spacing:0px;fill:#cf0612;fill-opacity:1;stroke-width:0.249994"
         id="tspan2-6">ENS</tspan></tspan></text>
</svg>
