<?xml version="1.0" encoding="UTF-8" standalone="no"?>
<!-- Created with Inkscape (http://www.inkscape.org/) -->

<svg
   width="60mm"
   height="60mm"
   viewBox="-5 -5 60 60"
   version="1.1"
   id="svg1"
   sodipodi:docname="CMHC Jongesn O8 Text to path.svg"
   inkscape:version="1.4.2 (f4327f4, 2025-05-13)"
   xmlns:inkscape="http://www.inkscape.org/namespaces/inkscape"
   xmlns:sodipodi="http://sodipodi.sourceforge.net/DTD/sodipodi-0.dtd"
   xmlns="http://www.w3.org/2000/svg"
   xmlns:svg="http://www.w3.org/2000/svg">
  <sodipodi:namedview
     id="namedview1"
     pagecolor="#ffffff"
     bordercolor="#000000"
     borderopacity="0.25"
     inkscape:showpageshadow="2"
     inkscape:pageopacity="0.0"
     inkscape:pagecheckerboard="0"
     inkscape:deskcolor="#d1d1d1"
     inkscape:document-units="mm"
     inkscape:lockguides="true"
     inkscape:zoom="5.6568543"
     inkscape:cx="78.04691"
     inkscape:cy="100.32077"
     inkscape:window-width="2880"
     inkscape:window-height="1694"
     inkscape:window-x="-11"
     inkscape:window-y="-11"
     inkscape:window-maximized="1"
     inkscape:current-layer="layer1" />
  <defs
     id="defs1" />
  <g
     inkscape:label="Layer 1"
     inkscape:groupmode="layer"
     id="layer1"
     transform="translate(-76.479377,-90.151991)">
    <g
       id="g3"
       transform="translate(-0.00786982,-0.03215472)"
       inkscape:label="Round Logo">
      <path
         id="path1"
         style="fill:#cf0612;fill-opacity:1;stroke-width:0.128973"
         d="m 101.4794,90.215667 a 24.999966,24.999976 0 0 0 -25.000008,25.000003 24.999966,24.999976 0 0 0 25.000008,25 z" />
      <path
         id="path1-1"
         style="fill:#ffffff;fill-opacity:1;stroke-width:0.128973"
         d="m 101.47939,90.215668 a 24.999968,24.999977 0 0 1 25,25.000002 24.999968,24.999977 0 0 1 -25,25 z" />
      <ellipse
         style="fill:none;fill-opacity:1;stroke:#000000;stroke-width:0.128641;stroke-opacity:1"
         id="path1-8"
         cx="101.47939"
         cy="115.21567"
         rx="24.93568"
         ry="24.935688" />
    </g>
    <text
       xml:space="preserve"
       style="font-style:normal;font-variant:normal;font-weight:normal;font-stretch:normal;font-size:3.175px;font-family:'Arial Rounded MT Bold';-inkscape-font-specification:'Arial Rounded MT Bold, ';text-align:start;writing-mode:lr-tb;direction:ltr;text-anchor:start;fill:#000000;fill-opacity:1;stroke:none;stroke-width:0.264583;stroke-opacity:1"
       x="124.89319"
       y="90.71788"
       id="text5"><tspan
         sodipodi:role="line"
         id="tspan5"
         style="stroke-width:0.264583" /></text>
    <path
       id="text8"
       style="font-style:normal;font-variant:normal;font-weight:normal;font-stretch:normal;font-size:22.5778px;font-family:'Yuji Boku';-inkscape-font-specification:'Yuji Boku, Normal';font-variant-ligatures:normal;font-variant-caps:normal;font-variant-numeric:normal;font-variant-east-asian:normal;text-align:start;letter-spacing:0.529167px;writing-mode:lr-tb;direction:ltr;text-anchor:start;fill:#ffffff;fill-opacity:1;stroke:none;stroke-width:0.264583;stroke-opacity:1"
       d="M 101.46049 122.26652 C 100.30814 122.41638 99.241748 122.69534 98.261722 123.10368 C 97.825217 123.2843 97.343664 123.46514 96.816849 123.64577 C 96.305085 123.82639 95.913694 124.02925 95.64276 124.25503 C 95.432034 124.51091 95.273733 124.78192 95.16837 125.0679 C 95.078059 125.35389 95.025809 125.64026 95.010757 125.92625 C 94.995705 126.54337 95.161175 127.14531 95.507368 127.73234 C 95.868613 128.30431 96.297399 128.78586 96.794111 129.17721 C 97.140304 129.44814 97.554236 129.70429 98.035896 129.94512 C 98.532607 130.18595 98.916313 130.45644 99.187246 130.75748 L 99.074592 130.84791 C 99.014384 130.89307 98.931391 130.90844 98.826028 130.89339 C 98.645406 131.19442 98.367234 131.52536 97.990937 131.88661 C 97.61464 132.24785 97.253475 132.62387 96.907282 133.01522 C 96.651401 133.33131 96.440333 133.64739 96.274763 133.96348 C 96.109192 134.27957 96.041571 134.60334 96.071674 134.93448 C 96.086726 134.99469 96.109267 135.06231 96.13937 135.13757 L 96.229804 135.31844 C 96.290012 135.4238 96.342779 135.5365 96.387934 135.65692 C 96.448142 135.76228 96.462996 135.89036 96.432893 136.04087 C 96.613515 136.20645 96.771815 136.36475 96.907282 136.51526 C 97.042749 136.65073 97.230759 136.74089 97.471589 136.78605 C 97.682315 136.78605 97.998399 136.81627 98.419851 136.87648 C 98.841304 136.92164 99.27009 136.98157 99.706595 137.05683 C 100.1431 137.11704 100.48172 137.16981 100.72255 137.21496 C 100.89719 137.14948 101.1434 137.10791 101.46049 137.08991 L 101.46049 135.79696 C 101.28872 135.84159 101.11065 135.87781 100.92616 135.90548 C 100.33914 135.99579 99.781758 136.04087 99.254943 136.04087 C 99.044216 136.08603 98.841352 136.10857 98.645677 136.10857 C 98.450003 136.09352 98.246622 136.07866 98.035896 136.06361 L 97.81007 136.06361 C 97.73481 136.04856 97.659503 136.04087 97.584244 136.04087 C 97.358466 135.8452 97.200682 135.61928 97.110371 135.3634 C 97.035111 135.09246 97.072507 134.79175 97.223025 134.46061 C 97.192922 134.27999 97.268229 134.06175 97.448851 133.80587 C 97.629474 133.54999 97.863081 133.2713 98.149067 132.97026 C 98.450104 132.66922 98.750817 132.37568 99.051854 132.08969 C 99.232477 131.92412 99.405632 131.75865 99.571202 131.59308 C 99.736773 131.42751 99.879702 131.2769 100.00012 131.14143 C 100.19579 131.29195 100.43657 131.43488 100.72255 131.57035 C 100.98784 131.68205 101.23406 131.77449 101.46049 131.84733 L 101.46049 129.16274 C 101.3501 129.23808 101.23964 129.31812 101.12925 129.40304 C 100.93357 129.5385 100.71534 129.60613 100.47451 129.60613 C 100.30894 129.60613 100.15832 129.56873 100.02285 129.49347 C 99.902439 129.40316 99.767196 129.29763 99.616678 129.17721 C 99.436055 129.02669 99.217302 128.87608 98.96142 128.72556 C 98.720591 128.55999 98.389652 128.46214 97.968199 128.43204 C 97.832733 128.23636 97.682118 128.06321 97.516547 127.91269 C 97.350977 127.74712 97.155281 127.61187 96.929503 127.50651 C 96.884348 127.07001 96.982195 126.61099 97.223025 126.12933 C 97.463855 125.64768 97.810166 125.27114 98.261722 125.0002 C 98.622966 124.78948 99.10452 124.57124 99.706595 124.34546 C 100.26521 124.12202 100.85005 123.93103 101.46049 123.77237 L 101.46049 122.26652 z " />
    <path
       id="text8-1"
       style="font-style:normal;font-variant:normal;font-weight:normal;font-stretch:normal;font-size:22.5778px;font-family:'Yuji Boku';-inkscape-font-specification:'Yuji Boku, Normal';font-variant-ligatures:normal;font-variant-caps:normal;font-variant-numeric:normal;font-variant-east-asian:normal;text-align:start;letter-spacing:0.529167px;writing-mode:lr-tb;direction:ltr;text-anchor:start;fill:#cf0612;fill-opacity:1;stroke:none;stroke-width:0.264583;stroke-opacity:1"
       d="M 102.80201 122.17557 C 102.47652 122.17369 102.15204 122.18976 101.82843 122.22363 C 101.71264 122.23575 101.59785 122.24929 101.48375 122.26394 L 101.48375 123.76669 C 101.52333 123.75647 101.56281 123.74615 101.6026 123.7362 C 102.27994 123.55558 102.88956 123.46541 103.43143 123.46541 C 103.46154 123.57078 103.5143 123.65377 103.58956 123.71398 L 103.86035 123.89433 C 104.11623 123.77391 104.36469 123.72883 104.60552 123.75894 C 104.84635 123.77399 105.06459 123.84161 105.26026 123.96203 C 105.54625 124.11254 105.77985 124.32361 105.96048 124.59454 C 106.1411 124.85043 106.2538 125.10606 106.29896 125.36194 C 105.74204 126.17474 105.04942 126.85199 104.22156 127.39386 C 103.39371 127.93572 102.55868 128.47004 101.71577 128.99686 C 101.63846 129.04444 101.56106 129.09444 101.48375 129.14672 L 101.48375 131.85508 C 101.49337 131.85814 101.50314 131.8614 101.51269 131.86439 C 101.88898 131.96975 102.31008 132.1803 102.77669 132.49639 C 103.25835 132.81248 103.59698 133.19618 103.79265 133.64774 C 103.71739 134.03909 103.56729 134.37823 103.34151 134.66421 C 103.11574 134.9502 102.84473 135.18329 102.52864 135.36391 C 102.21165 135.54797 101.86326 135.69058 101.48375 135.79128 L 101.48375 137.08887 C 101.59729 137.08292 101.71976 137.07957 101.85117 137.07957 C 102.36293 137.06452 102.84448 137.00458 103.29604 136.89922 C 103.86801 136.76375 104.36494 136.57574 104.78639 136.33491 C 105.20784 136.09408 105.59155 135.83077 105.93774 135.54478 C 105.93774 135.52973 105.92288 135.4995 105.89278 135.45435 C 105.86268 135.37909 105.84014 135.29609 105.82508 135.20578 C 105.81003 135.11547 105.90736 135.07039 106.11809 135.07039 L 105.9827 134.12213 C 105.95259 133.80604 105.79481 133.56526 105.50882 133.39969 C 105.58408 133.23412 105.52363 133.05328 105.32796 132.85761 C 105.13228 132.64688 104.95196 132.46656 104.78639 132.31604 L 104.53782 132.06747 C 104.25184 131.70623 103.9209 131.42806 103.5446 131.23238 C 103.18336 131.03671 102.8519 130.87841 102.55087 130.75799 C 102.24983 130.63758 102.04696 130.51719 101.9416 130.39677 C 102.22759 130.171 102.53598 129.98299 102.86713 129.83247 C 103.21332 129.68195 103.55194 129.51648 103.88308 129.33586 C 104.21422 129.15523 104.49291 128.91394 104.71869 128.6129 C 104.98963 128.6129 105.19249 128.53811 105.32796 128.38759 C 105.46342 128.23708 105.66681 128.07109 105.93774 127.89047 C 105.98289 127.86036 106.03566 127.83065 106.09587 127.80055 C 106.17113 127.75539 106.2536 127.70263 106.34392 127.64242 C 106.55464 127.52201 106.79542 127.37908 107.06635 127.21351 C 107.33729 127.03288 107.56321 126.85204 107.74383 126.67142 C 107.92445 126.4908 107.99976 126.32533 107.96966 126.17481 C 108.19543 126.0845 108.33836 125.94874 108.39857 125.76812 C 108.45878 125.57244 108.54177 125.3998 108.64713 125.24929 C 108.66219 125.09877 108.62427 124.93278 108.53396 124.75216 C 108.4587 124.55648 108.36086 124.3987 108.24044 124.27828 C 108.12003 124.14282 108.00732 124.09774 107.90196 124.14289 C 107.8568 123.88701 107.72873 123.69848 107.518 123.57807 C 107.32233 123.4426 107.09692 123.34475 106.84104 123.28455 C 106.58516 123.20929 106.35155 123.1345 106.14083 123.05924 C 105.9301 122.96893 105.80203 122.84085 105.75687 122.67528 C 104.76345 122.3479 103.7785 122.18122 102.80201 122.17557 z M 108.19548 124.68446 C 108.33095 124.81993 108.36118 125.00846 108.28592 125.24929 C 108.21066 125.47506 108.0749 125.71584 107.87922 125.97172 C 107.6986 126.21255 107.5029 126.43079 107.29218 126.62646 C 107.08145 126.80708 106.90881 126.91979 106.77335 126.96494 C 106.7884 126.88968 106.84065 126.79184 106.93096 126.67142 C 107.02127 126.55101 107.1268 126.41576 107.24722 126.26524 C 107.41279 126.05452 107.57109 125.84345 107.72161 125.63272 C 107.87213 125.422 107.92438 125.27138 107.87922 125.18107 C 107.99964 125.15097 108.07494 125.09103 108.10505 125.00072 C 108.1502 124.89536 108.18043 124.78982 108.19548 124.68446 z " />
    <path
       d="m 108.4732,125.07011 c -0.10537,0.15052 -0.18815,0.32362 -0.24836,0.51929 -0.0602,0.18062 -0.20319,0.31609 -0.42898,0.4064 0.0301,0.15052 -0.0451,0.31609 -0.22578,0.49671 -0.18062,0.18063 -0.4064,0.36125 -0.67733,0.54187 -0.27093,0.16557 -0.51176,0.30857 -0.72249,0.42898 -0.0903,0.0602 -0.1731,0.11288 -0.24836,0.15804 -0.0602,0.0301 -0.11288,0.0602 -0.15804,0.0903 -0.27093,0.18063 -0.47413,0.3462 -0.6096,0.49672 -0.13547,0.15051 -0.33867,0.22577 -0.6096,0.22577 -0.22578,0.30104 -0.50424,0.54187 -0.83538,0.72249 -0.33114,0.18063 -0.66981,0.3462 -1.016,0.49671 -0.33114,0.15052 -0.6397,0.33867 -0.92569,0.56445 0.10536,0.12041 0.30856,0.24083 0.6096,0.36124 0.30104,0.12042 0.63218,0.27847 0.99342,0.47414 0.3763,0.19567 0.70744,0.47413 0.99343,0.83538 0.0301,0.0301 0.11285,0.11292 0.24835,0.24835 0.16557,0.15052 0.3462,0.33114 0.54187,0.54187 0.19567,0.19567 0.25588,0.3763 0.18062,0.54187 0.28599,0.16557 0.44403,0.4064 0.47414,0.72249 0.0451,0.31609 0.0903,0.63217 0.13546,0.94826 -0.21073,0 -0.30856,0.0452 -0.29351,0.13547 0.0151,0.0903 0.0376,0.1731 0.0677,0.24836 0.0301,0.0451 0.0452,0.0752 0.0452,0.0903 -0.34619,0.28599 -0.73002,0.54939 -1.15147,0.79022 -0.42145,0.24083 -0.91816,0.42898 -1.49013,0.56445 -0.45156,0.10536 -0.93322,0.16557 -1.44498,0.18062 -0.51177,0 -0.88806,0.0452 -1.12889,0.13547 -0.24083,-0.0451 -0.579501,-0.0978 -1.016003,-0.15805 -0.436505,-0.0753 -0.865483,-0.13547 -1.286935,-0.18062 -0.421453,-0.0602 -0.737542,-0.0903 -0.948268,-0.0903 -0.24083,-0.0451 -0.428978,-0.13545 -0.564445,-0.27094 -0.135467,-0.15051 -0.293511,-0.30856 -0.474134,-0.47413 0.03011,-0.15052 0.01505,-0.27846 -0.04516,-0.38382 -0.04515,-0.12041 -0.09783,-0.2333 -0.158045,-0.33867 l -0.09031,-0.18062 c -0.03011,-0.0753 -0.05268,-0.14299 -0.06773,-0.2032 -0.03011,-0.33114 0.03763,-0.65476 0.2032,-0.97085 0.165571,-0.31609 0.376297,-0.63218 0.632178,-0.94827 0.346193,-0.39135 0.707438,-0.76764 1.083735,-1.12889 0.376297,-0.36124 0.654756,-0.69238 0.835378,-0.99342 0.105363,0.0151 0.188149,0 0.248356,-0.0452 l 0.112889,-0.0903 c -0.270933,-0.30103 -0.654756,-0.57197 -1.151468,-0.8128 -0.481659,-0.24083 -0.895586,-0.49671 -1.241779,-0.76764 -0.496711,-0.39135 -0.925689,-0.87301 -1.286934,-1.44498 -0.346193,-0.58702 -0.511764,-1.18909 -0.496712,-1.80622 0.01505,-0.28599 0.06773,-0.57197 0.158045,-0.85796 0.105363,-0.28599 0.263407,-0.55692 0.474133,-0.8128 0.270934,-0.22578 0.662283,-0.42898 1.174046,-0.6096 0.526815,-0.18063 1.008475,-0.36125 1.444979,-0.54187 1.083735,-0.45155 2.272834,-0.74506 3.567294,-0.88053 1.29446,-0.13547 2.60397,0.0151 3.92854,0.45155 0.0451,0.16557 0.17307,0.29351 0.38382,0.38382 0.21073,0.0753 0.44403,0.15052 0.69991,0.22578 0.25588,0.0602 0.48166,0.15804 0.67734,0.29351 0.21072,0.12042 0.33866,0.30857 0.38382,0.56445 0.10536,-0.0451 0.21825,2e-5 0.33867,0.13547 0.12041,0.12041 0.21825,0.27846 0.29351,0.47413 0.0903,0.18062 0.12794,0.34619 0.11289,0.49671 z m -2.3481,0.11289 c -0.0451,-0.25588 -0.15802,-0.51176 -0.33866,-0.76764 -0.18063,-0.27094 -0.41393,-0.48167 -0.69991,-0.63218 -0.19568,-0.12042 -0.41393,-0.18815 -0.65476,-0.2032 -0.24083,-0.0301 -0.48919,0.015 -0.74507,0.13546 -0.0903,-0.0602 -0.18062,-0.12041 -0.27093,-0.18062 -0.0753,-0.0602 -0.12794,-0.14298 -0.15805,-0.24835 -0.54187,0 -1.15147,0.0903 -1.8288,0.27093 -0.66228,0.16557 -1.29446,0.36877 -1.896533,0.6096 -0.602075,0.22578 -1.083735,0.44403 -1.44498,0.65476 -0.451556,0.27093 -0.797749,0.64723 -1.038579,1.12889 -0.240829,0.48166 -0.338666,0.94074 -0.293511,1.37724 0.225778,0.10537 0.421452,0.24083 0.587023,0.4064 0.165571,0.15052 0.316089,0.32362 0.451556,0.51929 0.421452,0.0301 0.752593,0.12797 0.993423,0.29351 0.255882,0.15052 0.474134,0.30104 0.654756,0.45156 0.150519,0.12041 0.285986,0.22578 0.406401,0.31609 0.135469,0.0753 0.285984,0.11289 0.451554,0.11289 0.24083,0 0.45909,-0.0677 0.65476,-0.2032 0.19567,-0.15052 0.39135,-0.28599 0.58702,-0.4064 0.84291,-0.52682 1.67829,-1.06116 2.50614,-1.60303 0.82785,-0.54187 1.52024,-1.2192 2.07715,-2.032 z m -2.50613,8.28605 c -0.19567,-0.45155 -0.53434,-0.83537 -1.016,-1.15146 -0.46661,-0.31609 -0.88806,-0.52682 -1.26436,-0.63218 -0.24083,-0.0753 -0.50423,-0.1731 -0.79022,-0.29351 -0.28599,-0.13547 -0.52682,-0.27846 -0.722492,-0.42898 -0.120415,0.13547 -0.263407,0.28598 -0.428978,0.45155 -0.165571,0.16557 -0.338667,0.33114 -0.51929,0.49671 -0.301037,0.28599 -0.602075,0.5795 -0.903112,0.88054 -0.285985,0.30104 -0.519289,0.5795 -0.699912,0.83538 -0.180622,0.25588 -0.255881,0.47413 -0.225778,0.65475 -0.150519,0.33115 -0.188148,0.63219 -0.112889,0.90312 0.09031,0.25588 0.248356,0.48166 0.474134,0.67733 0.07526,0 0.150519,0.008 0.225778,0.0226 h 0.225778 c 0.210726,0.0151 0.413926,0.0301 0.609601,0.0451 0.195674,0 0.398874,-0.0226 0.6096,-0.0677 0.526816,0 1.08374,-0.0452 1.67076,-0.13547 0.60207,-0.0903 1.13641,-0.27093 1.60302,-0.54186 0.31609,-0.18063 0.58703,-0.41393 0.8128,-0.69992 0.22578,-0.28598 0.3763,-0.62465 0.45156,-1.016 z m 4.40267,-8.96338 c -0.0151,0.10536 -0.0452,0.21072 -0.0903,0.31609 -0.0301,0.0903 -0.10539,0.15051 -0.22578,0.18062 0.0451,0.0903 -0.008,0.24082 -0.15804,0.45155 -0.15052,0.21073 -0.30857,0.42145 -0.47414,0.63218 -0.12041,0.15052 -0.22578,0.28599 -0.31609,0.4064 -0.0903,0.12042 -0.14299,0.21826 -0.15804,0.29351 0.13547,-0.0451 0.30856,-0.15802 0.51929,-0.33866 0.21073,-0.19567 0.4064,-0.41393 0.58702,-0.65476 0.19567,-0.25588 0.33114,-0.49671 0.4064,-0.72249 0.0753,-0.24083 0.0452,-0.42897 -0.0903,-0.56444 z"
       id="text8-1-1"
       style="font-size:22.5778px;font-family:'Yuji Boku';-inkscape-font-specification:'Yuji Boku, Normal';letter-spacing:0.529167px;stroke-width:0.264583"
       aria-label="8"
       sodipodi:nodetypes="ccccccccscsccsccccccccccsccccccccccccscscccccccccccscccccccscccccccccccsccccccsccsccccccsccscccccccccsccccccscccccc" />
  </g>
  <g
     id="g4"
     inkscape:label="Dot"
     transform="matrix(-0.1,0,0,0.10000001,31.035004,16.518736)">
    <path
       id="path1-6"
       style="fill:#cf0612;fill-opacity:1;stroke-width:0.128973"
       d="m 60.428544,91.877586 a 24.999966,24.999976 0 0 0 -25.00001,25.000004 24.999966,24.999976 0 0 0 25.00001,24.99999 z" />
    <path
       id="path1-1-8"
       style="fill:#ffffff;fill-opacity:1;stroke-width:0.128973"
       d="m 60.428534,91.877587 a 24.999968,24.999977 0 0 1 25,25.000003 24.999968,24.999977 0 0 1 -25,24.99999 z" />
  </g>
  <path
     d="m 17.653416,22.65007 q 0.01102,-0.06615 0,-0.352779 -0.01102,-0.286632 -0.01102,-0.705556 0.01102,-0.429948 0.02205,-0.937067 0.02205,-0.507118 0.07717,-1.025261 0.06615,-0.518143 0.176389,-0.992189 0.121267,-0.48507 0.30868,-0.837848 0.06615,-0.297656 0.319706,-0.407899 0.253559,-0.121268 0.71658,-0.143317 0.297657,0 0.507119,0.154341 0.209462,0.15434 0.352778,0.385851 0.15434,0.220486 0.264584,0.48507 0.110243,0.264583 0.198437,0.474045 v 0.05512 q 0.07717,0.220486 0.110243,0.661459 0.0441,0.429948 0.05512,0.915018 0.02205,0.474046 0.02205,0.915019 0,0.440972 0,0.672483 0,0.330729 -0.08819,0.793751 -0.08819,0.451997 -0.286632,0.859896 -0.187413,0.4079 -0.496094,0.694532 -0.308681,0.286633 -0.73863,0.286633 -0.363802,0 -0.650434,-0.187414 -0.275608,-0.187413 -0.474046,-0.474045 -0.187413,-0.297657 -0.286632,-0.639411 -0.09922,-0.341754 -0.09922,-0.650434 z m 1.069359,0.738629 q 0.02205,0.121267 0.121267,0.253559 0.110243,0.121268 0.25356,0.121268 h 0.08819 q 0.463021,-0.418924 0.606337,-0.959116 0.143317,-0.551216 0.143317,-1.157553 0,-0.143316 -0.01103,-0.440973 -0.01102,-0.297656 -0.0441,-0.661459 -0.02205,-0.374827 -0.06615,-0.782726 -0.0441,-0.4079 -0.110243,-0.760678 -0.06615,-0.363803 -0.154341,-0.628386 -0.08819,-0.264584 -0.209462,-0.363803 -0.01102,0.01102 -0.03307,0.0441 -0.01103,0.03307 -0.01103,0.0441 -0.23151,0.286632 -0.418924,0.782726 -0.187413,0.496095 -0.286632,1.179602 -0.08819,0.672483 -0.07717,1.521356 0.02205,0.837848 0.209462,1.807988 z m 5.72162,0.837848 q -0.15434,-0.220486 -0.264583,-0.606338 -0.09922,-0.396875 -0.198438,-0.826823 -0.08819,-0.440973 -0.165365,-0.848873 -0.07717,-0.418924 -0.165365,-0.661459 -0.07717,-0.253559 -0.176389,-0.286632 -0.09922,-0.03307 -0.23151,0.297657 l -0.959116,2.954517 q -0.05512,0.15434 -0.132292,0.220486 -0.07717,0.05512 -0.253559,0.05512 -0.08819,0 -0.187413,-0.02205 -0.09922,-0.03307 -0.187414,-0.08819 -0.08819,-0.05512 -0.15434,-0.132292 -0.05512,-0.07717 -0.06615,-0.176389 0.03307,-0.132291 0.05512,-0.48507 0.03307,-0.352778 0.0441,-0.815799 0.01102,-0.463021 0.01102,-0.97014 0.01102,-0.518143 0,-0.959115 0,-0.451997 -0.01102,-0.771703 -0.01103,-0.330729 -0.02205,-0.429948 0,-0.110243 0,-0.220486 0.01102,-0.121268 0.03307,-0.220487 0.03307,-0.09922 0.09922,-0.15434 0.07717,-0.06615 0.231511,-0.06615 0.209462,0 0.385851,0.176389 0.187413,0.176389 0.187413,0.374827 0,0.286632 -0.03307,0.573264 -0.02205,0.275608 -0.02205,0.562241 0,0.176389 0,0.297656 0,0.121268 0.0441,0.297657 0.03307,-0.08819 0.110243,-0.308681 0.07717,-0.220487 0.165365,-0.463022 0.09922,-0.242535 0.176389,-0.451997 0.07717,-0.220486 0.110243,-0.30868 0.07717,-0.220487 0.231511,-0.418924 0.15434,-0.209462 0.407899,-0.231511 0.165365,-0.01102 0.297657,0.08819 0.143316,0.09922 0.242535,0.264584 0.09922,0.15434 0.165365,0.33073 0.06614,0.165364 0.09922,0.286632 l 0.595313,2.745055 0.463022,1.256772 q 0.01102,0.01102 0.01102,0.06615 0,0.0441 0,0.06615 0,0.132291 -0.06615,0.264583 -0.05512,0.121268 -0.209462,0.121268 -0.187413,0 -0.385851,-0.09922 -0.198438,-0.110243 -0.275608,-0.275608 z m 4.189241,-1.367015 q -0.01102,0 -0.15434,0.242535 -0.132292,0.242535 -0.363803,0.529167 -0.231511,0.286632 -0.551216,0.529167 -0.308681,0.242535 -0.661459,0.242535 -0.48507,0 -0.815799,-0.297657 -0.319705,-0.297656 -0.319705,-0.815799 -0.02205,-0.264584 0.06615,-0.628386 0.09922,-0.363803 0.275607,-0.749654 0.187414,-0.396875 0.440973,-0.760677 0.264584,-0.374827 0.56224,-0.639411 0.297657,-0.275608 0.617362,-0.4079 0.33073,-0.132291 0.661459,-0.0441 v -0.15434 q 0,-0.286633 -0.02205,-0.584289 -0.01102,-0.308681 -0.03307,-0.694532 -0.01102,-0.396875 -0.03307,-0.903994 -0.01103,-0.518143 -0.01103,-1.234723 0.03307,-0.121268 0.110243,-0.154341 0.08819,-0.0441 0.187414,-0.0441 0.253559,0 0.396875,0.165365 0.154341,0.165364 0.187414,0.407899 -0.02205,0.374827 -0.02205,0.771702 0.01102,0.385852 0.0441,0.881946 0.03307,0.496094 0.09922,1.12448 0.07717,0.628386 0.187413,1.488283 0.110244,0.848872 0.264584,1.962328 0.15434,1.102432 0.363802,2.557642 v 0.374827 q 0,0.06615 -0.05512,0.09922 -0.0441,0.03307 -0.121268,0.0441 -0.06615,0.02205 -0.143316,0.02205 -0.06615,0.01103 -0.09922,0.01103 -0.165364,0 -0.352778,-0.09922 -0.187413,-0.0882 -0.220486,-0.25356 l -0.4079,-2.943492 q 0,-0.03307 -0.03307,-0.03307 -0.02205,-0.01102 -0.0441,-0.01102 z m -1.94028,0.242535 q 0,0.03307 -0.01102,0.121267 0,0.07717 0,0.165365 0.01102,0.08819 0.03307,0.15434 0.02205,0.06615 0.08819,0.06615 0.275608,0.01102 0.562241,-0.209462 0.297656,-0.220486 0.540191,-0.540191 0.242535,-0.33073 0.396876,-0.705557 0.165364,-0.374826 0.176389,-0.672483 0.02205,-0.297657 -0.143317,-0.451997 -0.15434,-0.165365 -0.540191,-0.07717 -0.474046,0.418924 -0.793751,0.959115 -0.308681,0.540192 -0.308681,1.190627 z m 8.323359,-1.631599 q -0.02205,0.198437 -0.05512,0.308681 -0.02205,0.110243 -0.08819,0.198437 -0.06615,0.0882 -0.187414,0.187414 -0.121267,0.08819 -0.330729,0.264583 -0.209462,0.165365 -0.518143,0.440973 -0.308681,0.275608 -0.749654,0.716581 -0.176389,0.165364 -0.363802,0.341753 -0.187413,0.176389 -0.396875,0.319706 -0.198438,0.132291 -0.418924,0.220486 -0.220487,0.08819 -0.463022,0.08819 -0.474045,0 -0.694532,-0.319705 -0.220486,-0.319705 -0.220486,-0.738629 0,-0.275608 0.01102,-0.463021 0.02205,-0.187414 0.08819,-0.48507 -0.121268,-0.110243 -0.209462,-0.187414 -0.08819,-0.08819 -0.08819,-0.23151 0,-0.132292 0.05512,-0.176389 0.06615,-0.0441 0.143316,-0.05512 0.08819,-0.02205 0.165365,-0.0441 0.07717,-0.02205 0.110243,-0.08819 0.02205,-0.06615 0.07717,-0.242535 0.06615,-0.176389 0.132292,-0.363802 0.06615,-0.198438 0.121267,-0.363803 0.06615,-0.176389 0.0882,-0.242535 0.07717,-0.187413 0.165365,-0.374826 0.09922,-0.198438 0.220486,-0.352778 0.132292,-0.154341 0.297657,-0.25356 0.176389,-0.09922 0.407899,-0.09922 0.132292,0 0.319705,0.121268 0.198438,0.121267 0.374827,0.297656 0.176389,0.165365 0.297657,0.352779 0.121267,0.187413 0.121267,0.319705 0,0.165364 -0.07717,0.308681 -0.07717,0.132291 -0.198438,0.253559 -0.110243,0.110243 -0.242535,0.209462 -0.132291,0.09922 -0.242535,0.187413 -0.01102,0 -0.0441,0.02205 -0.03307,0.02205 -0.05512,0.03307 -0.01102,0.01102 -0.05512,0.05512 -0.03307,0.03307 -0.07717,0.07717 -0.0441,0.0441 -0.08819,0.08819 -0.03307,0.0441 -0.0441,0.05512 -0.03307,0.03307 -0.132292,0.110243 -0.08819,0.06615 -0.198438,0.15434 -0.110243,0.07717 -0.209462,0.154341 -0.08819,0.06615 -0.121267,0.08819 l -0.0441,0.08819 q -0.02205,0.0441 -0.0441,0.198438 -0.01102,0.143316 -0.03307,0.330729 -0.02205,0.187413 -0.0441,0.385851 -0.01102,0.187414 -0.01102,0.308681 0,0.01102 0.01102,0.02205 0.02205,0.02205 0.03307,0.02205 0.0882,0 0.165365,-0.07717 0.07717,-0.07717 0.165365,-0.110243 l 1.76389,-1.631599 0.451997,-0.694532 q 0.05512,-0.07717 0.209462,-0.165365 0.165365,-0.09922 0.33073,-0.09922 0.165365,-0.01103 0.286632,0.09922 0.132292,0.110244 0.132292,0.429949 z m -2.42535,-0.859897 q 0.05512,-0.0441 0.0441,-0.132292 -0.01102,-0.08819 -0.06614,-0.15434 -0.0441,-0.06615 -0.121268,-0.07717 -0.07717,-0.02205 -0.143316,0.07717 -0.03307,0.0441 -0.121268,0.176389 -0.07717,0.132292 -0.165364,0.275608 -0.07717,0.132292 -0.132292,0.23151 -0.05512,0.09922 -0.02205,0.07717 z m 3.219101,3.516757 q -0.02205,-0.396875 -0.07717,-1.058334 -0.0441,-0.672484 -0.110243,-1.389064 -0.05512,-0.716581 -0.121267,-1.355991 -0.06615,-0.639411 -0.110244,-0.992189 0,-0.143316 0.132292,-0.187413 0.132292,-0.0441 0.25356,-0.0441 0.15434,0 0.319705,0.08819 0.176389,0.08819 0.220486,0.242535 0,0.0441 0.01102,0.165365 0.01102,0.110243 0.01102,0.231511 0.01102,0.121267 0.02205,0.242534 0.01103,0.110244 0.01103,0.154341 0,0.06615 0,0.09922 0,0.03307 0,0.06615 0,0.02205 0.01102,0.05512 0.01102,0.03307 0.03307,0.110243 0.02205,-0.02205 0.0441,-0.05512 0.03307,-0.03307 0.0441,-0.0441 0.17639,-0.25356 0.341754,-0.440973 0.165365,-0.198438 0.341754,-0.363803 0.176389,-0.176389 0.385851,-0.363802 0.220487,-0.198438 0.507119,-0.451997 0.06615,-0.05512 0.09922,-0.07717 0.03307,-0.03307 0.05512,-0.0441 0.03307,-0.02205 0.06615,-0.02205 0.03307,-0.01102 0.08819,-0.01102 0.187413,0 0.374826,0.132291 0.198438,0.121268 0.198438,0.341754 0,0.07717 -0.05512,0.165365 -0.05512,0.07717 -0.132292,0.15434 -0.07717,0.06615 -0.165365,0.121268 -0.07717,0.05512 -0.143316,0.07717 -0.286632,0.253559 -0.606338,0.584289 -0.319705,0.319705 -0.595313,0.694532 -0.275608,0.374827 -0.451997,0.782726 -0.176389,0.4079 -0.176389,0.8158 0,0.374827 0.05512,0.738629 0.05512,0.363802 0.05512,0.738629 v 0.385851 q -0.08819,0.08819 -0.15434,0.143316 -0.06615,0.05512 -0.187413,0.05512 -0.187414,0 -0.363803,-0.15434 -0.176389,-0.165365 -0.23151,-0.33073 z"
     id="text7-7-8"
     style="font-size:11.2889px;font-family:'Covered By Your Grace';-inkscape-font-specification:'Covered By Your Grace, Normal';letter-spacing:0px;stroke-width:0.264583"
     aria-label="Onder" />
  <g
     id="text7-5"
     style="font-size:11.2889px;font-family:'Covered By Your Grace';-inkscape-font-specification:'Covered By Your Grace, Normal';letter-spacing:0px;fill:#ffffff;stroke-width:0.264583"
     aria-label="Onder">
    <path
       d="m 17.191666,22.269941 q 0.01102,-0.06615 0,-0.352778 -0.01102,-0.286633 -0.01102,-0.705557 0.01102,-0.429948 0.02205,-0.937067 0.02205,-0.507118 0.07717,-1.025261 0.06614,-0.518143 0.176389,-0.992189 0.121267,-0.48507 0.30868,-0.837848 0.06615,-0.297656 0.319706,-0.407899 0.253559,-0.121268 0.71658,-0.143316 0.297657,0 0.507119,0.15434 0.209462,0.15434 0.352778,0.385851 0.15434,0.220486 0.264584,0.48507 0.110243,0.264584 0.198437,0.474046 v 0.05512 q 0.07717,0.220487 0.110243,0.661459 0.0441,0.429949 0.05512,0.915018 0.02205,0.474046 0.02205,0.915019 0,0.440972 0,0.672483 0,0.33073 -0.08819,0.793751 -0.08819,0.451997 -0.286632,0.859897 -0.187414,0.407899 -0.496094,0.694532 -0.308681,0.286632 -0.73863,0.286632 -0.363802,0 -0.650434,-0.187414 -0.275608,-0.187413 -0.474046,-0.474045 -0.187413,-0.297657 -0.286632,-0.639411 -0.09922,-0.341753 -0.09922,-0.650434 z m 1.069359,0.738629 q 0.02205,0.121267 0.121267,0.253559 0.110243,0.121268 0.253559,0.121268 h 0.0882 q 0.463021,-0.418924 0.606337,-0.959116 0.143317,-0.551216 0.143317,-1.157553 0,-0.143316 -0.01103,-0.440973 -0.01102,-0.297656 -0.0441,-0.661459 -0.02205,-0.374827 -0.06615,-0.782726 -0.0441,-0.4079 -0.110243,-0.760678 -0.06615,-0.363803 -0.154341,-0.628386 -0.08819,-0.264584 -0.209462,-0.363803 -0.01102,0.01103 -0.03307,0.0441 -0.01102,0.03307 -0.01102,0.0441 -0.23151,0.286632 -0.418924,0.782726 -0.187413,0.496095 -0.286632,1.179602 -0.08819,0.672484 -0.07717,1.521356 0.02205,0.837848 0.209462,1.807988 z m 5.72162,0.837848 q -0.15434,-0.220486 -0.264583,-0.606337 -0.09922,-0.396876 -0.198438,-0.826824 -0.08819,-0.440973 -0.165365,-0.848873 -0.07717,-0.418924 -0.165365,-0.661459 -0.07717,-0.253559 -0.176389,-0.286632 -0.09922,-0.03307 -0.23151,0.297657 l -0.959116,2.954517 q -0.05512,0.15434 -0.132292,0.220486 -0.07717,0.05512 -0.253559,0.05512 -0.08819,0 -0.187413,-0.02205 -0.09922,-0.03307 -0.187414,-0.0882 -0.08819,-0.05512 -0.15434,-0.132291 -0.05512,-0.07717 -0.06615,-0.176389 0.03307,-0.132292 0.05512,-0.48507 0.03307,-0.352779 0.0441,-0.8158 0.01102,-0.463021 0.01102,-0.97014 0.01102,-0.518143 0,-0.959115 0,-0.451997 -0.01102,-0.771702 -0.01103,-0.33073 -0.02205,-0.429949 0,-0.110243 0,-0.220486 0.01102,-0.121268 0.03307,-0.220486 0.03307,-0.09922 0.09922,-0.154341 0.07717,-0.06615 0.231511,-0.06615 0.209462,0 0.385851,0.176389 0.187413,0.176389 0.187413,0.374827 0,0.286632 -0.03307,0.573265 -0.02205,0.275607 -0.02205,0.56224 0,0.176389 0,0.297656 0,0.121268 0.0441,0.297657 0.03307,-0.08819 0.110243,-0.308681 0.07717,-0.220486 0.165365,-0.463021 0.09922,-0.242535 0.176389,-0.451997 0.07717,-0.220487 0.110243,-0.308681 0.07717,-0.220487 0.231511,-0.418924 0.15434,-0.209462 0.407899,-0.231511 0.165365,-0.01102 0.297657,0.0882 0.143316,0.09922 0.242535,0.264583 0.09922,0.154341 0.165364,0.33073 0.06615,0.165364 0.09922,0.286632 l 0.595313,2.745055 0.463022,1.256772 q 0.01102,0.01102 0.01102,0.06615 0,0.0441 0,0.06615 0,0.132292 -0.06615,0.264583 -0.05512,0.121268 -0.209462,0.121268 -0.187413,0 -0.385851,-0.09922 -0.198438,-0.110243 -0.275608,-0.275608 z"
       id="path13" />
    <path
       style="fill:#cf0612"
       d="m 28.171886,22.479403 c -0.0073,0 -0.05879,0.08085 -0.15434,0.242535 -0.08819,0.16169 -0.209462,0.338079 -0.363803,0.529167 -0.154341,0.191088 -0.338079,0.367477 -0.551216,0.529167 -0.205787,0.16169 -0.426274,0.242535 -0.661459,0.242535 -0.32338,0 -0.595313,-0.09922 -0.815799,-0.297656 -0.213137,-0.198438 -0.319705,-0.470371 -0.319705,-0.8158 -0.0147,-0.176389 0.0073,-0.385851 0.06615,-0.628386 0.06615,-0.242535 0.158016,-0.492419 0.275607,-0.749653 0.124943,-0.264584 0.271934,-0.518143 0.440973,-0.760678 0.176389,-0.249885 0.363803,-0.463022 0.56224,-0.639411 0.198438,-0.183739 0.404225,-0.319705 0.617362,-0.407899 0.220487,-0.0882 0.440973,-0.102895 0.661459,-0.0441 v -0.15434 c 0,-0.191088 -0.0074,-0.385851 -0.02205,-0.584289 -0.0073,-0.205787 -0.01837,-0.437298 -0.03307,-0.694532 -0.0073,-0.264583 -0.01837,-0.565915 -0.03307,-0.903994 -0.0073,-0.345429 -0.01102,-0.757003 -0.01102,-1.234723 0.02205,-0.08085 0.05879,-0.132292 0.110243,-0.154341 0.05879,-0.0294 0.121265,-0.0441 0.187414,-0.0441 0.169039,0 0.301331,0.05512 0.396875,0.165365 0.102894,0.110243 0.165365,0.246209 0.187414,0.407899 -0.0147,0.249885 -0.02205,0.507119 -0.02205,0.771703 0.0073,0.257234 0.02205,0.551216 0.0441,0.881945 0.02205,0.330729 0.05512,0.705556 0.09922,1.12448 0.05145,0.418924 0.113918,0.915018 0.187413,1.488283 0.0735,0.565915 0.161691,1.220024 0.264584,1.962328 0.102893,0.734955 0.224161,1.587502 0.363802,2.557642 v 0.374827 c 0,0.0441 -0.01837,0.07717 -0.05512,0.09922 -0.0294,0.02205 -0.06982,0.03675 -0.121268,0.0441 -0.0441,0.0147 -0.09187,0.02205 -0.143316,0.02205 -0.0441,0.0074 -0.07717,0.01103 -0.09922,0.01103 -0.110243,0 -0.227835,-0.03307 -0.352778,-0.09922 -0.124942,-0.0588 -0.198437,-0.14332 -0.220486,-0.253559 l -0.4079,-2.943493 c 0,-0.02205 -0.01102,-0.03307 -0.03307,-0.03307 -0.0147,-0.0073 -0.0294,-0.01102 -0.0441,-0.01102 z m -1.94028,0.242535 c 0,0.02205 -0.0037,0.06247 -0.01102,0.121267 v 0.165365 c 0.0073,0.0588 0.01837,0.110247 0.03307,0.15434 0.0147,0.0441 0.0441,0.06615 0.08819,0.06615 0.183739,0.0074 0.371152,-0.06247 0.562241,-0.209462 0.198437,-0.146991 0.378501,-0.327054 0.540191,-0.540191 0.16169,-0.220487 0.293982,-0.455672 0.396875,-0.705557 0.110243,-0.249884 0.16904,-0.474045 0.17639,-0.672483 0.0147,-0.198437 -0.03307,-0.349103 -0.143317,-0.451997 -0.102893,-0.110243 -0.282957,-0.135967 -0.540191,-0.07717 -0.316031,0.279283 -0.580614,0.598988 -0.793751,0.959116 -0.205787,0.360127 -0.308681,0.757003 -0.308681,1.190626 z m 8.323359,-1.631599 c -0.0147,0.132292 -0.03307,0.235186 -0.05512,0.308681 -0.0147,0.0735 -0.0441,0.139641 -0.08819,0.198437 -0.0441,0.0588 -0.106571,0.121271 -0.187414,0.187414 -0.08084,0.05879 -0.191088,0.146988 -0.330729,0.264583 -0.139641,0.110243 -0.312356,0.257234 -0.518143,0.440973 -0.205787,0.183739 -0.455672,0.422599 -0.749654,0.716581 -0.117593,0.110243 -0.23886,0.22416 -0.363802,0.341753 -0.124942,0.117593 -0.257234,0.224162 -0.396875,0.319706 -0.132292,0.08819 -0.271934,0.161689 -0.418925,0.220486 -0.146991,0.05879 -0.301331,0.08819 -0.463021,0.08819 -0.31603,0 -0.547541,-0.106569 -0.694532,-0.319706 -0.146991,-0.213137 -0.220486,-0.459346 -0.220486,-0.738629 0,-0.183739 0.0037,-0.338079 0.01102,-0.463021 0.0147,-0.124943 0.0441,-0.286633 0.0882,-0.48507 -0.08084,-0.0735 -0.150666,-0.135966 -0.209462,-0.187413 -0.05879,-0.05879 -0.08819,-0.135964 -0.08819,-0.231511 0,-0.08819 0.01837,-0.146991 0.05512,-0.176389 0.0441,-0.0294 0.09187,-0.04777 0.143316,-0.05512 0.05879,-0.0147 0.113915,-0.0294 0.165365,-0.0441 0.05145,-0.0147 0.08819,-0.0441 0.110243,-0.08819 0.0147,-0.04409 0.04042,-0.124938 0.07717,-0.242535 0.0441,-0.117593 0.0882,-0.23886 0.132292,-0.363802 0.0441,-0.132292 0.08452,-0.253559 0.121267,-0.363802 0.0441,-0.117593 0.0735,-0.198438 0.08819,-0.242535 0.05145,-0.124943 0.106568,-0.249885 0.165365,-0.374827 0.06615,-0.132292 0.139642,-0.249885 0.220486,-0.352778 0.08819,-0.102894 0.187413,-0.187414 0.297656,-0.25356 0.117593,-0.06615 0.25356,-0.09922 0.4079,-0.09922 0.08819,0 0.194763,0.04042 0.319705,0.121267 0.132292,0.08085 0.257234,0.180064 0.374827,0.297657 0.117593,0.110243 0.216812,0.227835 0.297657,0.352778 0.08084,0.124942 0.121267,0.23151 0.121267,0.319705 0,0.110243 -0.02572,0.213137 -0.07717,0.308681 -0.05145,0.08819 -0.117593,0.172714 -0.198438,0.253559 -0.0735,0.0735 -0.15434,0.143316 -0.242535,0.209462 -0.08819,0.06615 -0.169039,0.128618 -0.242535,0.187413 -0.0073,0 -0.02205,0.0073 -0.0441,0.02205 -0.02205,0.0147 -0.04042,0.02572 -0.05512,0.03307 l -0.05512,0.05512 -0.07717,0.07717 -0.08819,0.08819 c -0.02205,0.0294 -0.03675,0.04777 -0.0441,0.05512 -0.02205,0.02205 -0.06614,0.05879 -0.132292,0.110243 -0.05879,0.0441 -0.124939,0.09555 -0.198438,0.154341 -0.0735,0.05145 -0.143316,0.102893 -0.209462,0.15434 -0.05879,0.0441 -0.09922,0.0735 -0.121267,0.08819 l -0.0441,0.08819 c -0.0147,0.0294 -0.0294,0.09555 -0.0441,0.198438 -0.0073,0.09554 -0.01837,0.205787 -0.03307,0.330729 -0.0147,0.124943 -0.0294,0.25356 -0.0441,0.385851 -0.0073,0.124943 -0.01102,0.227836 -0.01102,0.308681 0,0.0074 0.0037,0.0147 0.01102,0.02205 0.0147,0.0147 0.02572,0.02205 0.03307,0.02205 0.05879,0 0.113915,-0.02572 0.165365,-0.07717 0.05145,-0.05145 0.106568,-0.08819 0.165365,-0.110243 l 1.76389,-1.631599 0.451997,-0.694532 c 0.03675,-0.05145 0.106567,-0.106568 0.209462,-0.165365 0.110243,-0.06615 0.220487,-0.09922 0.33073,-0.09922 0.110243,-0.0074 0.205787,0.02572 0.286632,0.09922 0.08819,0.0735 0.132292,0.216812 0.132292,0.429949 z m -2.42535,-0.859897 c 0.03675,-0.0294 0.05145,-0.0735 0.0441,-0.132292 -0.0073,-0.05879 -0.0294,-0.11024 -0.06615,-0.15434 -0.0294,-0.0441 -0.06982,-0.06982 -0.121267,-0.07717 -0.05145,-0.0147 -0.09922,0.01102 -0.143316,0.07717 -0.02205,0.0294 -0.06247,0.0882 -0.121268,0.176389 -0.05145,0.08819 -0.106568,0.180064 -0.165364,0.275608 -0.05145,0.08819 -0.09554,0.165365 -0.132292,0.231511 -0.03675,0.06615 -0.0441,0.09187 -0.02205,0.07717 z m 3.219101,3.516757 c -0.0147,-0.264583 -0.04042,-0.617361 -0.07717,-1.058334 -0.0294,-0.448323 -0.06615,-0.911344 -0.110243,-1.389064 -0.03675,-0.477721 -0.07717,-0.929718 -0.121267,-1.355991 -0.0441,-0.426273 -0.08085,-0.757003 -0.110244,-0.992189 0,-0.09554 0.0441,-0.158015 0.132292,-0.187413 0.08819,-0.0294 0.172715,-0.0441 0.25356,-0.0441 0.102893,0 0.209462,0.0294 0.319705,0.08819 0.117593,0.05879 0.191088,0.139638 0.220486,0.242535 0,0.0294 0.0037,0.08452 0.01102,0.165365 0.0073,0.0735 0.01102,0.150666 0.01102,0.231511 0.0073,0.08085 0.0147,0.16169 0.02205,0.242535 0.0073,0.0735 0.01102,0.124942 0.01102,0.15434 v 0.09922 0.06615 c 0,0.0147 0.0037,0.03307 0.01102,0.05512 0.0073,0.02205 0.01837,0.05879 0.03307,0.110244 0.0147,-0.0147 0.0294,-0.03307 0.0441,-0.05512 l 0.0441,-0.0441 c 0.117593,-0.16904 0.231511,-0.316031 0.341754,-0.440973 0.110243,-0.132292 0.224161,-0.253559 0.341754,-0.363802 0.117593,-0.117593 0.24621,-0.23886 0.385851,-0.363803 0.146991,-0.132292 0.316031,-0.282958 0.507119,-0.451997 0.0441,-0.03675 0.07717,-0.06247 0.09922,-0.07717 0.02205,-0.02205 0.04042,-0.03675 0.05512,-0.0441 0.02205,-0.0147 0.0441,-0.02205 0.06615,-0.02205 0.02205,-0.0073 0.05145,-0.01102 0.0882,-0.01102 0.124942,0 0.249884,0.0441 0.374826,0.132292 0.132292,0.08085 0.198438,0.194762 0.198438,0.341753 0,0.05145 -0.01837,0.106568 -0.05512,0.165365 -0.03675,0.05145 -0.08084,0.102894 -0.132292,0.154341 -0.05145,0.0441 -0.106568,0.08452 -0.165365,0.121267 -0.05145,0.03675 -0.09922,0.06247 -0.143316,0.07717 -0.191088,0.16904 -0.393201,0.363803 -0.606338,0.584289 -0.213137,0.213137 -0.411574,0.444647 -0.595313,0.694532 -0.183739,0.249885 -0.334404,0.510793 -0.451997,0.782726 -0.117593,0.271933 -0.176389,0.543867 -0.176389,0.8158 0,0.249885 0.01837,0.496094 0.05512,0.738629 0.03675,0.242535 0.05512,0.488745 0.05512,0.738629 v 0.385851 c -0.05879,0.0588 -0.11024,0.106572 -0.15434,0.143317 -0.0441,0.03675 -0.106571,0.05512 -0.187413,0.05512 -0.124943,0 -0.24621,-0.05145 -0.363803,-0.15434 -0.117593,-0.110243 -0.194763,-0.220487 -0.23151,-0.33073 z"
       id="path14"
       sodipodi:nodetypes="ccscsccccccccscccccscccsccccscccsccccccsccsccccccccssscsccscscsssscccsccsccccccccsccsscsscscccccccccscscssssccccccsscscccccsccsccscsscccccscssccccccccccscscccccssssscssccs" />
  </g>
  <path
     style="font-size:11.2889px;font-family:'Covered By Your Grace';-inkscape-font-specification:'Covered By Your Grace, Normal';letter-spacing:0px;stroke-width:0.249994"
     d="m 8.6531871,12.542604 q 0,-0.143316 0.07717,-0.275608 0.07717,-0.132292 0.2535593,-0.132292 0.099219,0 0.1653648,0.06615 0.066146,0.06615 0.1102431,0.165365 0.055122,0.08819 0.099219,0.187413 0.044097,0.0882 0.099219,0.143316 0.07717,0.06615 0.2645836,0.286632 0.1984378,0.220487 0.3968752,0.463022 0.198438,0.242535 0.363803,0.451997 0.165364,0.198437 0.187413,0.242535 0.02205,0.02205 0.06615,0.07717 0.0441,0.0441 0.06615,0.06615 l 0.0441,-0.0441 q 0,-0.01103 0,-0.110244 0.01102,-0.09922 0.01102,-0.220486 0,-0.121267 0,-0.242535 0,-0.132292 0,-0.209462 0,-0.948091 -0.03307,-1.874134 -0.02205,-0.937067 -0.02205,-1.8851579 V 8.1439014 q 0.03307,-0.1543404 0.132292,-0.2204863 0.110243,-0.07717 0.253559,-0.07717 0.15434,0 0.297657,0.066146 0.15434,0.066146 0.198437,0.2315106 -0.02205,1.3780396 0.03307,2.7119816 0.06615,1.333943 0.06615,2.700958 0,0.165365 0,0.474046 0,0.297656 -0.05512,0.595313 -0.0441,0.297656 -0.187414,0.518143 -0.132292,0.220486 -0.396875,0.220486 -0.02205,0 -0.06615,-0.01102 -0.03307,0 -0.0441,0 -0.05512,-0.02205 -0.198438,-0.110244 -0.143316,-0.08819 -0.165365,-0.132291 L 8.8516248,13.071771 Q 8.719333,12.928455 8.6862601,12.818212 8.6531871,12.696944 8.6531871,12.542604 Z m 3.6931459,0.859897 q 0.01103,-0.06615 0,-0.352779 -0.01102,-0.286632 -0.01102,-0.705556 0.01102,-0.429948 0.02205,-0.937067 0.02205,-0.507118 0.07717,-1.025261 0.06615,-0.5181432 0.176389,-0.9921888 0.121267,-0.4850699 0.308681,-0.8378481 0.06615,-0.2976565 0.319705,-0.4078997 0.253559,-0.1212675 0.716581,-0.1433161 0.297656,0 0.507118,0.1543404 0.209462,0.1543405 0.352778,0.3858511 0.154341,0.2204864 0.264584,0.48507 0.110243,0.2645836 0.198438,0.4740456 v 0.055122 q 0.07717,0.2204863 0.110243,0.661459 0.0441,0.429948 0.05512,0.915018 0.02205,0.474046 0.02205,0.915019 0,0.440972 0,0.672483 0,0.330729 -0.0882,0.793751 -0.08819,0.451997 -0.286632,0.859896 -0.187413,0.4079 -0.496094,0.694532 -0.308681,0.286633 -0.738629,0.286633 -0.363803,0 -0.650435,-0.187414 -0.275608,-0.187413 -0.474046,-0.474045 -0.187413,-0.297657 -0.286632,-0.639411 -0.09922,-0.341754 -0.09922,-0.650434 z m 1.069359,0.738629 q 0.02205,0.121267 0.121268,0.253559 0.110243,0.121268 0.253559,0.121268 h 0.08819 q 0.463022,-0.418925 0.606338,-0.959116 0.143316,-0.551216 0.143316,-1.157553 0,-0.143316 -0.01102,-0.440973 -0.01103,-0.297657 -0.0441,-0.661459 -0.02205,-0.374827 -0.06615,-0.782726 -0.0441,-0.4079 -0.110243,-0.7606783 -0.06615,-0.3638025 -0.15434,-0.6283861 -0.0882,-0.2645836 -0.209462,-0.3638024 -0.01102,0.011024 -0.03307,0.044097 -0.01102,0.033073 -0.01102,0.044097 -0.231511,0.2866322 -0.418924,0.7827265 -0.187414,0.4960938 -0.286633,1.1796018 -0.08819,0.672483 -0.07717,1.521356 0.02205,0.837848 0.209462,1.807988 z m 2.57969,-0.165365 q 0,-0.672483 0.02205,-1.344967 0.03307,-0.683507 0.06615,-1.355991 0.03307,-0.683507 0.0441,-1.3559906 0.02205,-0.6835076 0,-1.3559909 0.03307,-0.1212675 0.121268,-0.1763891 0.08819,-0.066146 0.209462,-0.066146 0.23151,0 0.352778,0.088195 0.121267,0.07717 0.176389,0.2204864 0.05512,0.1433161 0.06615,0.3197051 0.01102,0.1763891 0.02205,0.3527782 0.132291,0.2425349 0.30868,0.4740456 0.187414,0.2204863 0.33073,0.4519967 0,0.01103 0.01102,0.05512 0.02205,0.03307 0.03307,0.03307 0.06615,0.09922 0.165365,0.264583 0.110243,0.154341 0.209462,0.308681 0.09922,0.143316 0.165365,0.25356 0.07717,0.110243 0.07717,0.110243 l 0.0441,0.05512 0.639411,0.926043 q 0.0441,0.0441 0.07717,0.0441 h 0.02205 Q 19.016045,11.109443 18.927851,9.8967678 18.839656,8.6730686 18.839656,7.4824424 V 6.9312266 q 0.08819,-0.1433161 0.297657,-0.1433161 0.209462,0 0.308681,0.099219 0.09922,0.099219 0.132291,0.2535593 0.03307,0.1433161 0.03307,0.3197052 0,0.1653647 0.01103,0.3086808 0,0.011024 0.01102,0.044097 0.01102,0.022049 0.02205,0.1212675 0.02205,0.088195 0.03307,0.2866322 0.02205,0.1874134 0.0441,0.5291672 0.03307,0.3417539 0.05512,0.8598967 0.03307,0.5181425 0.07717,1.2677965 v 0.198438 l 0.374826,2.458422 q 0.01102,0.0882 0.08819,0.275608 0.08819,0.176389 0.08819,0.275608 0,0.231511 -0.132292,0.374827 -0.132292,0.143316 -0.374827,0.143316 -0.03307,0 -0.08819,-0.02205 -0.05512,-0.03307 -0.110243,-0.06615 -0.05512,-0.03307 -0.110243,-0.06615 -0.0441,-0.0441 -0.06615,-0.06615 l -1.774915,-2.524569 q -0.01102,0 -0.02205,-0.03307 -0.01103,-0.0441 -0.02205,-0.06615 -0.06615,-0.09922 -0.176389,-0.242535 -0.110243,-0.15434 -0.209462,-0.297656 -0.09922,-0.154341 -0.176389,-0.264584 -0.07717,-0.110243 -0.07717,-0.121267 l -0.05512,-0.0441 q -0.05512,1.047311 -0.0882,2.116669 -0.03307,1.058335 0,2.116669 -0.02205,0.132292 -0.143316,0.231511 -0.110243,0.09922 -0.23151,0.09922 -0.220487,0 -0.352778,-0.110244 -0.121268,-0.121267 -0.209463,-0.30868 z m 8.775357,2.337155 q -0.165365,-0.661459 -0.242535,-1.400088 -0.06615,-0.749654 -0.08819,-1.400088 -0.09922,0.05512 -0.165365,0.176389 -0.06615,0.110243 -0.121267,0.242535 -0.0441,0.121267 -0.09922,0.253559 -0.05512,0.121267 -0.132292,0.209462 -0.253559,0.286632 -0.551216,0.529167 -0.297656,0.231511 -0.705556,0.231511 -0.330729,0 -0.661459,-0.143316 -0.319705,-0.143316 -0.584289,-0.374827 -0.253559,-0.242535 -0.418924,-0.551216 -0.15434,-0.308681 -0.15434,-0.650435 0,-0.474045 0.15434,-0.959115 0.154341,-0.496094 0.374827,-0.915018 0.0441,-0.07717 0.132292,-0.220487 0.09922,-0.15434 0.198437,-0.308681 0.110244,-0.15434 0.198438,-0.275608 0.08819,-0.132291 0.121268,-0.165364 l 1.20165,-1.2677967 q 0.242535,-0.2535593 0.606338,-0.3638024 0.374826,-0.1212675 0.694532,-0.1433162 0.165364,-0.022049 0.275607,0.055122 0.110244,0.066146 0.110244,0.2315107 0,0.1322918 -0.110244,0.209462 -0.09922,0.066146 -0.242535,0.1102432 -0.143316,0.044097 -0.297656,0.088194 -0.15434,0.033073 -0.242535,0.088195 -0.584289,0.4740458 -1.058334,1.0693588 -0.474046,0.584289 -0.848873,1.223699 -0.121267,0.385851 -0.253559,0.738629 -0.132292,0.352778 -0.132292,0.771703 0,0.03307 0,0.15434 0.01102,0.110243 0.01102,0.143316 0.110244,0.264584 0.33073,0.48507 0.231511,0.220486 0.540191,0.220486 0.154341,0 0.319706,-0.09922 0.165364,-0.09922 0.253559,-0.242534 0.0441,-0.05512 0.15434,-0.220487 0.110244,-0.165365 0.220487,-0.352778 0.121267,-0.187413 0.220486,-0.352778 0.110243,-0.165365 0.143316,-0.231511 0.03307,-0.06615 0.08819,-0.165364 0.06615,-0.110244 0.110243,-0.209463 0.05512,-0.09922 0.08819,-0.176389 0.0441,-0.08819 0.0441,-0.09922 v -0.0441 q -0.154341,0.0441 -0.308681,0.07717 -0.154341,0.02205 -0.319705,0.02205 -0.09922,0 -0.220487,-0.01102 -0.110243,-0.02205 -0.220486,-0.06615 -0.09922,-0.0441 -0.176389,-0.121268 -0.06615,-0.07717 -0.06615,-0.209462 0,-0.05512 0.01102,-0.132291 0.01103,-0.07717 0.0441,-0.121268 0.08819,-0.07717 0.23151,-0.110243 0.154341,-0.0441 0.319705,-0.05512 0.176389,-0.02205 0.341754,-0.03307 0.176389,-0.02205 0.319705,-0.07717 0.121268,-0.0441 0.286633,-0.110243 0.165364,-0.07717 0.341753,-0.143316 0.187414,-0.07717 0.374827,-0.132292 0.187414,-0.05512 0.341754,-0.07717 0.03307,0 0.0882,0.02205 0.06614,0.02205 0.132291,0.05512 0.06615,0.03307 0.110244,0.07717 0.0441,0.03307 0.0441,0.06615 0,0.242535 -0.132292,0.341754 -0.132292,0.08819 -0.341754,0.220486 0.03307,0.440973 -0.03307,0.881946 -0.05512,0.440972 -0.05512,0.881945 0,0.529167 0.02205,1.080383 0.02205,0.551216 0.110243,1.069359 0.01103,0.02205 0.03307,0.110243 0.02205,0.09922 0.0441,0.198438 0.03307,0.09922 0.05512,0.187413 0.02205,0.08819 0.02205,0.110243 v 0.02205 q 0,0.15434 -0.121268,0.297656 -0.110243,0.154341 -0.264583,0.154341 -0.165365,0 -0.319705,-0.110243 -0.143317,-0.110243 -0.176389,-0.264584 z m 2.259984,-1.20165 q -0.110244,-0.440973 -0.165365,-0.826824 -0.05512,-0.396876 -0.07717,-0.837848 -0.01103,-0.253559 0,-0.429949 0.01102,-0.187413 -0.0441,-0.407899 -0.01102,-0.0441 -0.05512,-0.06615 -0.03307,-0.02205 -0.07717,-0.05512 -0.03307,-0.03307 -0.06615,-0.07717 -0.03307,-0.05512 -0.03307,-0.165365 0,-0.08819 0.03307,-0.15434 0.0441,-0.06615 0.07717,-0.121268 0.0441,-0.06615 0.07717,-0.132291 0.0441,-0.07717 0.0441,-0.17639 v -0.165364 q 0,-0.110243 -0.02205,-0.374827 -0.02205,-0.264584 -0.0441,-0.56224 -0.02205,-0.297657 -0.0441,-0.5622404 -0.01102,-0.2645836 -0.02205,-0.3638024 -0.01103,-0.1874134 -0.09922,-0.3307295 -0.08819,-0.1433161 -0.08819,-0.3307295 0,-0.3527782 0.143316,-0.4960943 0.143316,-0.1433161 0.507119,-0.1433161 0.07717,0 0.121267,0.066146 0.05512,0.066146 0.121268,0.066146 h 0.0441 q 0.03307,-0.011024 0.09922,-0.022049 0.06615,-0.022049 0.08819,-0.022049 0.926042,-0.3968754 1.444185,-0.6173617 0.518143,-0.2204863 0.782727,-0.3197052 0.264583,-0.099219 0.352778,-0.1102432 0.09922,-0.011024 0.165364,0.022049 0.132292,0.022049 0.176389,0.088195 0.05512,0.055122 0.05512,0.1763891 0,0.1102431 -0.03307,0.2204863 -0.03307,0.1102432 -0.15434,0.1653648 l -1.444186,0.6945319 -0.0441,0.044097 -1.212675,0.5181429 q -0.06615,0.022049 -0.07717,0.1102431 -0.01102,0.088195 -0.01102,0.1433162 0,0.088195 0.02205,0.3197052 0.02205,0.2315108 0.0441,0.4850698 0.02205,0.242535 0.0441,0.440973 0.03307,0.187413 0.0441,0.187413 h 0.01102 q 0,0 0.01103,-0.01102 0.121267,-0.08819 0.385851,-0.297657 0.264583,-0.220486 0.540191,-0.440972 0.275608,-0.220487 0.48507,-0.3858515 0.209462,-0.176389 0.220487,-0.176389 0.121267,0 0.220486,0.1212674 0.09922,0.1212675 0.09922,0.2535591 0,0.132292 -0.05512,0.297657 -0.05512,0.165365 -0.176389,0.253559 l -1.719793,1.53238 q 0,0 0,0.05512 0,0.05512 -0.01103,0.121267 0,0.06615 0,0.143316 0,0.06615 0,0.110243 0,0.396876 0.05512,0.793751 0.05512,0.385851 0.05512,0.782727 h 0.0441 q 0.01102,0 0.09922,-0.0882 0.08819,-0.08819 0.132291,-0.143316 0.02205,-0.03307 0.09922,-0.143316 0.08819,-0.110243 0.286632,-0.363802 0.198438,-0.25356 0.529168,-0.672484 0.330729,-0.418924 0.848872,-1.058334 0.0441,-0.0441 0.121268,-0.132292 0.08819,-0.0882 0.110243,-0.0882 0.03307,-0.03307 0.132292,-0.02205 0.110243,0 0.15434,0.02205 0.05512,0.02205 0.143316,0.121268 0.08819,0.09922 0.08819,0.187413 0,0.132292 -0.143317,0.352778 -0.132291,0.209462 -0.319705,0.440973 -0.187413,0.231511 -0.374826,0.451997 -0.187414,0.209462 -0.286633,0.341754 -0.15434,0.242535 -0.374826,0.595313 -0.209462,0.341754 -0.463022,0.661459 -0.253559,0.308681 -0.56224,0.540192 -0.297656,0.220486 -0.63941,0.220486 -0.165365,0 -0.242535,-0.05512 -0.06615,-0.05512 -0.176389,-0.198437 z m 4.045924,-1.135505 q 0,-0.672483 0.02205,-1.344967 0.03307,-0.683507 0.06615,-1.355991 0.03307,-0.683507 0.0441,-1.3559906 0.02205,-0.6835076 0,-1.3559909 0.03307,-0.1212675 0.121267,-0.1763891 0.08819,-0.066146 0.209462,-0.066146 0.231511,0 0.352778,0.088195 0.121268,0.07717 0.176389,0.2204864 0.05512,0.1433161 0.06615,0.3197051 0.01102,0.1763891 0.02205,0.3527782 0.132292,0.2425349 0.308681,0.4740456 0.187413,0.2204863 0.330729,0.4519967 0,0.01103 0.01103,0.05512 0.02205,0.03307 0.03307,0.03307 0.06615,0.09922 0.165364,0.264583 0.110244,0.154341 0.209462,0.308681 0.09922,0.143316 0.165365,0.25356 0.07717,0.110243 0.07717,0.110243 l 0.0441,0.05512 0.63941,0.926043 q 0.0441,0.0441 0.07717,0.0441 h 0.02205 Q 34.09731,11.109443 34.009115,9.8967678 33.920921,8.6730686 33.920921,7.4824424 V 6.9312266 q 0.08819,-0.1433161 0.297656,-0.1433161 0.209462,0 0.308681,0.099219 0.09922,0.099219 0.132292,0.2535593 0.03307,0.1433161 0.03307,0.3197052 0,0.1653647 0.01102,0.3086808 0,0.011024 0.01103,0.044097 0.01102,0.022049 0.02205,0.1212675 0.02205,0.088195 0.03307,0.2866322 0.02205,0.1874134 0.0441,0.5291672 0.03307,0.3417539 0.05512,0.8598967 0.03307,0.5181425 0.07717,1.2677965 v 0.198438 l 0.374827,2.458422 q 0.01102,0.0882 0.08819,0.275608 0.08819,0.176389 0.08819,0.275608 0,0.231511 -0.132292,0.374827 -0.132292,0.143316 -0.374827,0.143316 -0.03307,0 -0.08819,-0.02205 -0.05512,-0.03307 -0.110243,-0.06615 -0.05512,-0.03307 -0.110243,-0.06615 -0.0441,-0.0441 -0.06615,-0.06615 l -1.774915,-2.524569 q -0.01103,0 -0.02205,-0.03307 -0.01102,-0.0441 -0.02205,-0.06615 -0.06615,-0.09922 -0.176389,-0.242535 -0.110243,-0.15434 -0.209462,-0.297656 -0.09922,-0.154341 -0.176389,-0.264584 -0.07717,-0.110243 -0.07717,-0.121267 l -0.05512,-0.0441 q -0.05512,1.047311 -0.08819,2.116669 -0.03307,1.058335 0,2.116669 -0.02205,0.132292 -0.143316,0.231511 -0.110243,0.09922 -0.231511,0.09922 -0.220486,0 -0.352778,-0.110244 -0.121267,-0.121267 -0.209462,-0.30868 z m 6.559468,0.981164 q 0.176389,-0.242535 0.385851,-0.363802 0.220487,-0.121268 0.440973,-0.198438 0.231511,-0.07717 0.451997,-0.143316 0.231511,-0.07717 0.451997,-0.242535 0.121268,-0.06615 0.341754,-0.198438 0.220486,-0.132292 0.429948,-0.286632 0.220487,-0.165365 0.374827,-0.319705 0.165365,-0.154341 0.165365,-0.264584 0,-0.01102 -0.01102,-0.01102 -0.02205,0 -0.02205,-0.01102 l -0.02205,-0.02205 q -0.05512,-0.02205 -0.176389,-0.05512 -0.121267,-0.03307 -0.143316,-0.0441 -1.422137,-0.165365 -2.293058,-0.286632 -0.859897,-0.132292 -1.333942,-0.275608 -0.463022,-0.143316 -0.617362,-0.33073 -0.15434,-0.187413 -0.15434,-0.474045 0,-0.110243 0.0441,-0.242535 0.0441,-0.132292 0.09922,-0.264584 0.06615,-0.132292 0.132292,-0.242535 0.06614,-0.110243 0.121267,-0.176389 0.176389,-0.220486 0.463021,-0.396875 0.286633,-0.1763893 0.617362,-0.3086811 0.33073,-0.1322918 0.661459,-0.2315106 0.341754,-0.099219 0.617362,-0.1763891 0.308681,-0.022049 0.617362,-0.1433161 0.319705,-0.1322918 0.628386,-0.1763891 0.15434,0 0.253559,0.1212675 0.09922,0.1212675 0.09922,0.2535593 0,0.1874134 -0.07717,0.2866322 -0.06615,0.088195 -0.187414,0.1433162 -0.110243,0.044097 -0.253559,0.07717 -0.143316,0.022049 -0.286632,0.055122 -0.08819,0.02205 -0.242535,0.06615 -0.154341,0.03307 -0.308681,0.07717 -0.154341,0.0441 -0.275608,0.07717 -0.121268,0.03307 -0.143316,0.0441 -0.341754,0.143316 -0.650435,0.275607 -0.297657,0.121268 -0.529167,0.25356 -0.220486,0.132292 -0.352778,0.286632 -0.121268,0.143316 -0.110243,0.319705 v 0.01103 q 0.110243,0.15434 0.496094,0.23151 0.385851,0.07717 0.903994,0.132292 0.529167,0.05512 1.102431,0.110243 0.584289,0.05512 1.069359,0.165365 0.48507,0.110243 0.804775,0.297656 0.319705,0.187414 0.33073,0.507119 0,0.121267 -0.05512,0.286632 -0.0441,0.165365 -0.132292,0.25356 -0.275608,0.30868 -0.661459,0.63941 -0.374826,0.330729 -0.815799,0.617362 -0.440973,0.275608 -0.915018,0.474045 -0.463022,0.187414 -0.915019,0.220487 -0.15434,0 -0.286632,-0.110244 -0.132292,-0.121267 -0.132292,-0.286632 z"
     id="text118-1"
     aria-label="JONGENS" />
  <g
     id="text118-8-5"
     style="font-size:11.2889px;font-family:'Covered By Your Grace';-inkscape-font-specification:'Covered By Your Grace, Normal';letter-spacing:0px;fill:#1a1a1a;stroke-width:0.249994"
     aria-label="JONGENS">
    <path
       style="fill:#ffffff"
       d="m 8.1067069,12.230937 q 0,-0.143316 0.07717,-0.275608 0.07717,-0.132291 0.2535592,-0.132291 0.099219,0 0.1653648,0.06615 0.066146,0.06615 0.1102432,0.165364 0.055122,0.08819 0.099219,0.187414 0.044097,0.08819 0.099219,0.143316 0.07717,0.06615 0.2645836,0.286632 0.1984377,0.220486 0.3968754,0.463021 0.1984377,0.242535 0.3638024,0.451997 0.1653645,0.198438 0.1874135,0.242535 0.02205,0.02205 0.06615,0.07717 0.0441,0.0441 0.06615,0.06615 l 0.0441,-0.0441 q 0,-0.01102 0,-0.110243 0.01102,-0.09922 0.01102,-0.220486 0,-0.121268 0,-0.242535 0,-0.132292 0,-0.209462 0,-0.948092 -0.03307,-1.874134 -0.02205,-0.937067 -0.02205,-1.8851584 V 7.8322349 q 0.03307,-0.1543404 0.132292,-0.2204863 0.110243,-0.07717 0.253559,-0.07717 0.15434,0 0.297656,0.066146 0.154341,0.066146 0.198438,0.2315106 -0.02205,1.3780396 0.03307,2.7119821 0.06615,1.333942 0.06615,2.700957 0,0.165365 0,0.474046 0,0.297657 -0.05512,0.595313 -0.0441,0.297657 -0.187413,0.518143 -0.132292,0.220486 -0.396875,0.220486 -0.02205,0 -0.06615,-0.01102 -0.03307,0 -0.0441,0 -0.05512,-0.02205 -0.198437,-0.110243 -0.143316,-0.0882 -0.165365,-0.132292 L 8.3051446,12.760105 Q 8.1728528,12.616788 8.1397799,12.506545 8.1067069,12.385278 8.1067069,12.230937 Z m 3.6931461,0.859897 q 0.01102,-0.06615 0,-0.352778 -0.01102,-0.286632 -0.01102,-0.705556 0.01102,-0.429949 0.02205,-0.937067 0.02205,-0.507119 0.07717,-1.025262 0.06615,-0.5181427 0.176389,-0.9921883 0.121267,-0.4850699 0.308681,-0.837848 0.06615,-0.2976566 0.319705,-0.4078998 0.253559,-0.1212675 0.71658,-0.1433161 0.297657,0 0.507119,0.1543404 0.209462,0.1543405 0.352778,0.3858511 0.154341,0.2204864 0.264584,0.48507 0.110243,0.2645836 0.198437,0.4740456 v 0.055122 q 0.07717,0.2204863 0.110244,0.661459 0.0441,0.4299485 0.05512,0.9150185 0.02205,0.474045 0.02205,0.915018 0,0.440973 0,0.672483 0,0.33073 -0.08819,0.793751 -0.08819,0.451997 -0.286632,0.859897 -0.187413,0.4079 -0.496094,0.694532 -0.308681,0.286632 -0.738629,0.286632 -0.363803,0 -0.650435,-0.187413 -0.275608,-0.187414 -0.474046,-0.474046 -0.187413,-0.297656 -0.286632,-0.63941 -0.09922,-0.341754 -0.09922,-0.650435 z m 1.069359,0.738629 q 0.02205,0.121268 0.121267,0.25356 0.110244,0.121267 0.25356,0.121267 h 0.08819 q 0.463022,-0.418924 0.606338,-0.959116 0.143316,-0.551215 0.143316,-1.157553 0,-0.143316 -0.01103,-0.440972 -0.01102,-0.297657 -0.0441,-0.661459 -0.02205,-0.374827 -0.06615,-0.782727 -0.0441,-0.4078997 -0.110243,-0.7606778 -0.06615,-0.3638025 -0.15434,-0.6283861 -0.08819,-0.2645836 -0.209462,-0.3638024 -0.01102,0.011024 -0.03307,0.044097 -0.01103,0.033073 -0.01103,0.044097 -0.23151,0.2866322 -0.418924,0.7827265 -0.187413,0.4960942 -0.286632,1.1796023 -0.08819,0.672483 -0.07717,1.521355 0.02205,0.837848 0.209462,1.807988 z m 2.57969,-0.165364 q 0,-0.672484 0.02205,-1.344967 0.03307,-0.683508 0.06615,-1.355991 0.03307,-0.683508 0.0441,-1.3559911 0.02205,-0.6835076 0,-1.3559909 0.03307,-0.1212675 0.121268,-0.1763891 0.08819,-0.066146 0.209462,-0.066146 0.23151,0 0.352778,0.088195 0.121267,0.07717 0.176389,0.2204864 0.05512,0.1433161 0.06615,0.3197052 0.01102,0.176389 0.02205,0.3527781 0.132292,0.242535 0.308681,0.4740456 0.187414,0.2204863 0.33073,0.451997 0,0.011024 0.01102,0.055122 0.02205,0.033073 0.03307,0.033073 0.06615,0.09922 0.165365,0.264584 0.110243,0.15434 0.209462,0.308681 0.09922,0.143316 0.165365,0.253559 0.07717,0.110243 0.07717,0.110243 l 0.0441,0.05512 0.63941,0.926042 q 0.0441,0.0441 0.07717,0.0441 h 0.02205 q -0.143316,-1.168578 -0.23151,-2.3812527 -0.0882,-1.2236992 -0.0882,-2.4143254 V 6.6195601 q 0.0882,-0.1433161 0.297657,-0.1433161 0.209462,0 0.30868,0.099219 0.09922,0.099219 0.132292,0.2535593 0.03307,0.1433161 0.03307,0.3197052 0,0.1653647 0.01103,0.3086809 0,0.011024 0.01102,0.044097 0.01102,0.022049 0.02205,0.1212675 0.02205,0.088195 0.03307,0.2866322 0.02205,0.1874134 0.0441,0.5291673 0.03307,0.3417538 0.05512,0.8598967 0.03307,0.5181428 0.07717,1.2677959 v 0.198438 l 0.374827,2.458423 q 0.01103,0.08819 0.0882,0.275608 0.08819,0.176389 0.08819,0.275608 0,0.23151 -0.132291,0.374826 -0.132292,0.143317 -0.374827,0.143317 -0.03307,0 -0.0882,-0.02205 -0.05512,-0.03307 -0.110243,-0.06615 -0.05512,-0.03307 -0.110243,-0.06615 -0.0441,-0.0441 -0.06615,-0.06615 L 17.212793,11.54743 q -0.01102,0 -0.02205,-0.03307 -0.01102,-0.0441 -0.02205,-0.06615 -0.06615,-0.09922 -0.176389,-0.242535 -0.110244,-0.154341 -0.209462,-0.297657 -0.09922,-0.15434 -0.176389,-0.264583 -0.07717,-0.110243 -0.07717,-0.121268 l -0.05512,-0.0441 q -0.05512,1.04731 -0.08819,2.116669 -0.03307,1.058334 0,2.116669 -0.02205,0.132291 -0.143316,0.23151 -0.110243,0.09922 -0.231511,0.09922 -0.220486,0 -0.352778,-0.110243 -0.121267,-0.121268 -0.209462,-0.308681 z m 8.775356,2.337155 q -0.165364,-0.661459 -0.242535,-1.400089 -0.06615,-0.749653 -0.08819,-1.400088 -0.09922,0.05512 -0.165365,0.176389 -0.06615,0.110243 -0.121267,0.242535 -0.0441,0.121268 -0.09922,0.25356 -0.05512,0.121267 -0.132292,0.209462 -0.253559,0.286632 -0.551216,0.529167 -0.297656,0.23151 -0.705556,0.23151 -0.33073,0 -0.661459,-0.143316 -0.319705,-0.143316 -0.584289,-0.374826 -0.253559,-0.242535 -0.418924,-0.551216 -0.15434,-0.308681 -0.15434,-0.650435 0,-0.474046 0.15434,-0.959116 0.15434,-0.496094 0.374827,-0.915018 0.0441,-0.07717 0.132292,-0.220486 0.09922,-0.154341 0.198437,-0.308681 0.110243,-0.154341 0.198438,-0.275608 0.0882,-0.132292 0.121267,-0.165365 l 1.201651,-1.2677962 q 0.242535,-0.2535593 0.606337,-0.3638024 0.374827,-0.1212675 0.694532,-0.1433161 0.165365,-0.022049 0.275608,0.055122 0.110243,0.066146 0.110243,0.2315107 0,0.1322918 -0.110243,0.209462 -0.09922,0.066146 -0.242535,0.1102432 -0.143316,0.044097 -0.297656,0.088195 -0.154341,0.033073 -0.242535,0.088195 -0.584289,0.4740457 -1.058335,1.0693583 -0.474045,0.584289 -0.848872,1.2237 -0.121267,0.385851 -0.253559,0.738629 -0.132292,0.352778 -0.132292,0.771702 0,0.03307 0,0.15434 0.01102,0.110244 0.01102,0.143317 0.110243,0.264583 0.33073,0.48507 0.23151,0.220486 0.540191,0.220486 0.154341,0 0.319705,-0.09922 0.165365,-0.09922 0.25356,-0.242535 0.0441,-0.05512 0.15434,-0.220486 0.110243,-0.165365 0.220486,-0.352778 0.121268,-0.187414 0.220487,-0.352779 0.110243,-0.165364 0.143316,-0.23151 0.03307,-0.06615 0.08819,-0.165365 0.06615,-0.110243 0.110244,-0.209462 0.05512,-0.09922 0.08819,-0.176389 0.0441,-0.08819 0.0441,-0.09922 v -0.0441 q -0.15434,0.0441 -0.30868,0.07717 -0.154341,0.02205 -0.319706,0.02205 -0.09922,0 -0.220486,-0.01103 -0.110243,-0.02205 -0.220486,-0.06615 -0.09922,-0.0441 -0.176389,-0.121267 -0.06615,-0.07717 -0.06615,-0.209462 0,-0.05512 0.01102,-0.132292 0.01102,-0.07717 0.0441,-0.121267 0.0882,-0.07717 0.231511,-0.110244 0.15434,-0.0441 0.319705,-0.05512 0.176389,-0.02205 0.341754,-0.03307 0.176389,-0.02205 0.319705,-0.07717 0.121268,-0.0441 0.286632,-0.110243 0.165365,-0.07717 0.341754,-0.143317 0.187414,-0.07717 0.374827,-0.132291 0.187413,-0.05512 0.341754,-0.07717 0.03307,0 0.08819,0.02205 0.06615,0.02205 0.132292,0.05512 0.06615,0.03307 0.110243,0.07717 0.0441,0.03307 0.0441,0.06615 0,0.242535 -0.132292,0.341754 -0.132292,0.08819 -0.341754,0.220486 0.03307,0.440973 -0.03307,0.881945 -0.05512,0.440973 -0.05512,0.881946 0,0.529167 0.02205,1.080383 0.02205,0.551215 0.110243,1.069358 0.01103,0.02205 0.03307,0.110244 0.02205,0.09922 0.0441,0.198437 0.03307,0.09922 0.05512,0.187414 0.02205,0.08819 0.02205,0.110243 v 0.02205 q 0,0.154341 -0.121268,0.297657 -0.110243,0.15434 -0.264583,0.15434 -0.165365,0 -0.319706,-0.110243 -0.143316,-0.110243 -0.176389,-0.264583 z"
       id="path15" />
    <path
       style="fill:#cf0612"
       d="m 26.484242,14.799603 q -0.110243,-0.440973 -0.165364,-0.826824 -0.05512,-0.396875 -0.07717,-0.837848 -0.01103,-0.253559 0,-0.429948 0.01102,-0.187413 -0.0441,-0.4079 -0.01102,-0.0441 -0.05512,-0.06615 -0.03307,-0.02205 -0.07717,-0.05512 -0.03307,-0.03307 -0.06615,-0.07717 -0.03307,-0.05512 -0.03307,-0.165365 0,-0.08819 0.03307,-0.154341 0.0441,-0.06615 0.07717,-0.121267 0.0441,-0.06615 0.07717,-0.132292 0.0441,-0.07717 0.0441,-0.176389 v -0.165365 q 0,-0.110243 -0.02205,-0.374827 -0.02205,-0.264583 -0.0441,-0.56224 -0.02205,-0.2976562 -0.0441,-0.5622399 -0.01102,-0.2645836 -0.02205,-0.3638024 -0.01102,-0.1874134 -0.09922,-0.3307295 -0.0882,-0.1433161 -0.0882,-0.3307295 0,-0.3527781 0.143316,-0.4960943 0.143316,-0.1433161 0.507119,-0.1433161 0.07717,0 0.121267,0.066146 0.05512,0.066146 0.121268,0.066146 h 0.0441 q 0.03307,-0.011024 0.09922,-0.022049 0.06615,-0.022049 0.08819,-0.022049 0.926043,-0.3968754 1.444186,-0.6173617 0.518143,-0.2204863 0.782726,-0.3197052 0.264584,-0.099219 0.352779,-0.1102431 0.09922,-0.011024 0.165364,0.022049 0.132292,0.022049 0.176389,0.088195 0.05512,0.055122 0.05512,0.1763891 0,0.1102432 -0.03307,0.2204863 -0.03307,0.1102432 -0.15434,0.1653648 l -1.444186,0.6945319 -0.0441,0.044097 -1.212675,0.5181429 q -0.06615,0.022049 -0.07717,0.1102432 -0.01103,0.088195 -0.01103,0.1433161 0,0.088195 0.02205,0.3197052 0.02205,0.2315106 0.0441,0.4850703 0.02205,0.242535 0.0441,0.440972 0.03307,0.187414 0.0441,0.187414 h 0.01102 q 0,0 0.01102,-0.01103 0.121268,-0.08819 0.385852,-0.297656 0.264583,-0.220487 0.540191,-0.4409729 0.275608,-0.2204863 0.48507,-0.3858511 0.209462,-0.176389 0.220486,-0.176389 0.121268,0 0.220487,0.1212674 0.09922,0.1212675 0.09922,0.2535593 0,0.1322918 -0.05512,0.2976563 -0.05512,0.165365 -0.176389,0.25356 l -1.719794,1.53238 q 0,0 0,0.05512 0,0.05512 -0.01102,0.121268 0,0.06615 0,0.143316 0,0.06615 0,0.110243 0,0.396875 0.05512,0.793751 0.05512,0.385851 0.05512,0.782726 h 0.0441 q 0.01102,0 0.09922,-0.08819 0.08819,-0.0882 0.132292,-0.143316 0.02205,-0.03307 0.09922,-0.143317 0.0882,-0.110243 0.286632,-0.363802 0.198438,-0.253559 0.529168,-0.672483 0.330729,-0.418924 0.848872,-1.058335 0.0441,-0.0441 0.121267,-0.132292 0.08819,-0.08819 0.110244,-0.08819 0.03307,-0.03307 0.132291,-0.02205 0.110244,0 0.154341,0.02205 0.05512,0.02205 0.143316,0.121267 0.08819,0.09922 0.08819,0.187414 0,0.132292 -0.143316,0.352778 -0.132291,0.209462 -0.319705,0.440973 -0.187413,0.23151 -0.374827,0.451997 -0.187413,0.209462 -0.286632,0.341753 -0.15434,0.242535 -0.374827,0.595314 -0.209462,0.341753 -0.463021,0.661459 -0.253559,0.30868 -0.56224,0.540191 -0.297657,0.220486 -0.63941,0.220486 -0.165365,0 -0.242535,-0.05512 -0.06615,-0.05512 -0.17639,-0.198438 z m 4.045925,-1.135504 q 0,-0.672484 0.02205,-1.344967 0.03307,-0.683508 0.06615,-1.355991 0.03307,-0.683508 0.0441,-1.3559911 0.02205,-0.6835076 0,-1.3559909 0.03307,-0.1212675 0.121267,-0.1763891 0.08819,-0.066146 0.209462,-0.066146 0.231511,0 0.352778,0.088195 0.121268,0.07717 0.176389,0.2204864 0.05512,0.1433161 0.06615,0.3197052 0.01103,0.176389 0.02205,0.3527781 0.132292,0.242535 0.308681,0.4740456 0.187413,0.2204863 0.330729,0.451997 0,0.011024 0.01102,0.055122 0.02205,0.033073 0.03307,0.033073 0.06615,0.09922 0.165365,0.264584 0.110243,0.15434 0.209462,0.308681 0.09922,0.143316 0.165365,0.253559 0.07717,0.110243 0.07717,0.110243 l 0.0441,0.05512 0.639411,0.926042 q 0.0441,0.0441 0.07717,0.0441 h 0.02205 Q 33.55083,10.797776 33.462635,9.5851013 33.374441,8.3614021 33.374441,7.1707759 V 6.6195601 q 0.08819,-0.1433161 0.297656,-0.1433161 0.209462,0 0.308681,0.099219 0.09922,0.099219 0.132292,0.2535593 0.03307,0.1433161 0.03307,0.3197052 0,0.1653647 0.01102,0.3086809 0,0.011024 0.01102,0.044097 0.01102,0.022049 0.02205,0.1212675 0.02205,0.088195 0.03307,0.2866322 0.02205,0.1874134 0.0441,0.5291673 0.03307,0.3417538 0.05512,0.8598967 0.03307,0.5181428 0.07717,1.2677959 v 0.198438 l 0.374827,2.458423 q 0.01102,0.08819 0.08819,0.275608 0.08819,0.176389 0.08819,0.275608 0,0.23151 -0.132292,0.374826 -0.132292,0.143317 -0.374827,0.143317 -0.03307,0 -0.08819,-0.02205 -0.05512,-0.03307 -0.110243,-0.06615 -0.05512,-0.03307 -0.110244,-0.06615 -0.0441,-0.0441 -0.06615,-0.06615 L 32.294057,11.54743 q -0.01102,0 -0.02205,-0.03307 -0.01102,-0.0441 -0.02205,-0.06615 -0.06615,-0.09922 -0.176389,-0.242535 -0.110243,-0.154341 -0.209462,-0.297657 -0.09922,-0.15434 -0.176389,-0.264583 -0.07717,-0.110243 -0.07717,-0.121268 l -0.05512,-0.0441 q -0.05512,1.04731 -0.08819,2.116669 -0.03307,1.058334 0,2.116669 -0.02205,0.132291 -0.143316,0.23151 -0.110244,0.09922 -0.231511,0.09922 -0.220486,0 -0.352778,-0.110243 -0.121268,-0.121268 -0.209462,-0.308681 z m 6.559468,0.981164 q 0.176389,-0.242535 0.385851,-0.363803 0.220487,-0.121267 0.440973,-0.198437 0.231511,-0.07717 0.451997,-0.143317 0.231511,-0.07717 0.451997,-0.242535 0.121267,-0.06615 0.341754,-0.198437 0.220486,-0.132292 0.429948,-0.286632 0.220486,-0.165365 0.374827,-0.319706 0.165365,-0.15434 0.165365,-0.264583 0,-0.01103 -0.01103,-0.01103 -0.02205,0 -0.02205,-0.01102 l -0.02205,-0.02205 q -0.05512,-0.02205 -0.176389,-0.05512 -0.121268,-0.03307 -0.143316,-0.0441 -1.422137,-0.165365 -2.293058,-0.286633 -0.859897,-0.132291 -1.333942,-0.275608 -0.463022,-0.143316 -0.617362,-0.330729 -0.154341,-0.187413 -0.154341,-0.474046 0,-0.110243 0.0441,-0.242535 0.0441,-0.132291 0.09922,-0.264583 0.06614,-0.132292 0.132291,-0.242535 0.06615,-0.110243 0.121268,-0.176389 0.176389,-0.2204866 0.463021,-0.3968757 0.286632,-0.1763891 0.617362,-0.3086809 0.330729,-0.1322918 0.661459,-0.2315106 0.341754,-0.099219 0.617362,-0.1763891 0.30868,-0.022049 0.617361,-0.1433161 0.319706,-0.1322918 0.628386,-0.1763891 0.154341,0 0.25356,0.1212675 0.09922,0.1212675 0.09922,0.2535593 0,0.1874134 -0.07717,0.2866322 -0.06615,0.088195 -0.187413,0.1433162 -0.110243,0.044097 -0.253559,0.07717 -0.143316,0.022049 -0.286633,0.055122 -0.08819,0.022049 -0.242535,0.066146 -0.15434,0.033073 -0.30868,0.07717 -0.154341,0.044097 -0.275608,0.07717 -0.121268,0.033073 -0.143316,0.044097 -0.341754,0.1433159 -0.650435,0.2756079 -0.297657,0.121267 -0.529167,0.253559 -0.220487,0.132292 -0.352778,0.286633 -0.121268,0.143316 -0.110244,0.319705 v 0.01102 q 0.110244,0.15434 0.496095,0.231511 0.385851,0.07717 0.903994,0.132291 0.529167,0.05512 1.102431,0.110244 0.584289,0.05512 1.069359,0.165364 0.48507,0.110244 0.804775,0.297657 0.319705,0.187413 0.33073,0.507119 0,0.121267 -0.05512,0.286632 -0.0441,0.165364 -0.132292,0.253559 -0.275608,0.308681 -0.661459,0.63941 -0.374827,0.33073 -0.815799,0.617362 -0.440973,0.275608 -0.915019,0.474046 -0.463021,0.187413 -0.915018,0.220486 -0.15434,0 -0.286632,-0.110243 -0.132292,-0.121268 -0.132292,-0.286632 z"
       id="path16" />
  </g>
</svg>
