<?xml version="1.0" encoding="UTF-8" standalone="no"?>
<!-- Created with Inkscape (http://www.inkscape.org/) -->

<svg
   width="150.61409mm"
   height="150.61414mm"
   viewBox="-5 -5 150.61409 150.61414"
   version="1.1"
   id="svg1"
   sodipodi:docname="CMHC Jongens JO9.svg"
   inkscape:version="1.4.2 (f4327f4, 2025-05-13)"
   inkscape:export-filename="CMHC Jongens JO9.png"
   inkscape:export-xdpi="96"
   inkscape:export-ydpi="96"
   xmlns:inkscape="http://www.inkscape.org/namespaces/inkscape"
   xmlns:sodipodi="http://sodipodi.sourceforge.net/DTD/sodipodi-0.dtd"
   xmlns="http://www.w3.org/2000/svg"
   xmlns:svg="http://www.w3.org/2000/svg">
  <sodipodi:namedview
     id="namedview1"
     pagecolor="#ffffff"
     bordercolor="#000000"
     borderopacity="0.25"
     inkscape:showpageshadow="2"
     inkscape:pageopacity="0.0"
     inkscape:pagecheckerboard="0"
     inkscape:deskcolor="#d1d1d1"
     inkscape:document-units="mm"
     inkscape:lockguides="true"
     inkscape:zoom="1"
     inkscape:cx="339"
     inkscape:cy="199.5"
     inkscape:window-width="1650"
     inkscape:window-height="1161"
     inkscape:window-x="254"
     inkscape:window-y="0"
     inkscape:window-maximized="0"
     inkscape:current-layer="layer1" />
  <defs
     id="defs1" />
  <g
     inkscape:label="Layer 1"
     inkscape:groupmode="layer"
     id="layer1"
     transform="translate(-31.164478,-44.876449)">
    <g
       id="g3"
       transform="matrix(3,0,0,3,-202.96666,-230.46349)"
       inkscape:label="Round Logo">
      <path
         id="path1"
         style="fill:#cf0612;fill-opacity:1;stroke-width:0.128973"
         d="m 101.4794,90.215667 a 24.999966,24.999976 0 0 0 -25.000008,25.000003 24.999966,24.999976 0 0 0 25.000008,25 z" />
      <path
         id="path1-1"
         style="fill:#ffffff;fill-opacity:1;stroke-width:0.128973"
         d="m 101.47939,90.215668 a 24.999968,24.999977 0 0 1 25,25.000002 24.999968,24.999977 0 0 1 -25,25 z" />
      <ellipse
         style="fill:none;fill-opacity:1;stroke:#000000;stroke-width:0.333333;stroke-dasharray:none;stroke-opacity:1"
         id="path1-8"
         cx="101.47939"
         cy="115.21567"
         rx="24.93568"
         ry="24.935688" />
    </g>
    <text
       xml:space="preserve"
       style="font-style:normal;font-variant:normal;font-weight:normal;font-stretch:normal;font-size:3.175px;font-family:'Arial Rounded MT Bold';-inkscape-font-specification:'Arial Rounded MT Bold, ';text-align:start;writing-mode:lr-tb;direction:ltr;text-anchor:start;fill:#000000;fill-opacity:1;stroke:none;stroke-width:0.264583;stroke-opacity:1"
       x="124.89319"
       y="90.71788"
       id="text5"><tspan
         sodipodi:role="line"
         id="tspan5"
         style="stroke-width:0.264583"
         x="124.89319"
         y="90.71788" /></text>
    <text
       xml:space="preserve"
       style="font-style:normal;font-variant:normal;font-weight:normal;font-stretch:normal;font-size:84.6667px;font-family:'Segoe Script';-inkscape-font-specification:'Segoe Script, Normal';font-variant-ligatures:normal;font-variant-caps:normal;font-variant-numeric:normal;font-variant-east-asian:normal;text-align:start;letter-spacing:1.5875px;writing-mode:lr-tb;direction:ltr;text-anchor:start;fill:#ffffff;fill-opacity:1;stroke:none;stroke-width:0.793749;stroke-opacity:1"
       x="69.142723"
       y="183.1897"
       id="text8-1-1-3-2"
       inkscape:label="9 w"><tspan
         sodipodi:role="line"
         id="tspan8-6-8-8-3"
         style="font-style:normal;font-variant:normal;font-weight:normal;font-stretch:normal;font-size:84.6667px;font-family:'Segoe Script';-inkscape-font-specification:'Segoe Script, Normal';font-variant-ligatures:normal;font-variant-caps:normal;font-variant-numeric:normal;font-variant-east-asian:normal;fill:#ffffff;fill-opacity:1;stroke:none;stroke-width:0.793749;stroke-opacity:1"
         x="69.142723"
         y="183.1897">9</tspan></text>
    <path
       id="text8-1-1-3"
       style="font-style:normal;font-variant:normal;font-weight:normal;font-stretch:normal;font-size:84.6667px;font-family:'Segoe Script';-inkscape-font-specification:'Segoe Script, Normal';font-variant-ligatures:normal;font-variant-caps:normal;font-variant-numeric:normal;font-variant-east-asian:normal;text-align:start;letter-spacing:1.5875px;writing-mode:lr-tb;direction:ltr;text-anchor:start;fill:#cf0612;fill-opacity:1;stroke:none;stroke-width:0.793749;stroke-opacity:1"
       inkscape:label="9 r"
       d="m 110.74019,127.71812 c -1.12999,0 -2.68718,0.2067 -4.67155,0.62011 -0.96463,0.22049 -1.94304,0.46854 -2.93522,0.74414 -0.52091,0.13023 -1.04179,0.27554 -1.5627,0.43615 v 6.20583 c 0.27572,-0.11589 0.54856,-0.22149 0.81856,-0.31678 1.90169,-0.66146 4.20301,-0.99219 6.90397,-0.99219 1.51584,0 2.97656,0.27561 4.38216,0.82682 1.35048,0.55122 2.25998,1.46072 2.72851,2.72852 -0.46853,0.85438 -0.89572,1.84657 -1.28157,2.97656 -0.38585,1.12999 -0.73036,2.16352 -1.03353,3.10059 -0.27561,0.88194 -0.68902,1.81901 -1.24023,2.8112 -0.33073,0.55121 -1.35048,1.41938 -3.05925,2.60449 -2.25998,1.51584 -4.94715,3.0179 -8.06152,4.50618 -0.0525,0.0244 -0.10488,0.0484 -0.1571,0.0724 v 5.70663 c 0.54742,-0.24314 1.12343,-0.51572 1.72806,-0.81804 1.15755,-0.57878 2.28754,-1.17133 3.38998,-1.77767 1.12999,-0.60634 2.23242,-1.22645 3.30729,-1.86035 l 0.74414,0.53743 c -0.22049,0.79927 -0.4961,1.76389 -0.82683,2.89389 -0.33072,1.10243 -0.70279,2.35644 -1.11621,3.76204 -0.38585,1.4056 -0.7717,2.78364 -1.15755,4.13411 -0.38585,1.35048 -0.75792,2.70096 -1.11621,4.05144 -0.68902,2.59071 -1.03353,4.3546 -1.03353,5.29166 0,0.7717 0.13781,1.63987 0.41341,2.6045 0.27561,0.96462 0.64768,1.79144 1.11621,2.48046 0.52366,0.90951 1.4745,1.36426 2.85254,1.36426 1.87414,0 2.8112,-2.06705 2.8112,-6.20117 0,-0.88195 0.0551,-1.76389 0.16537,-2.64583 0.1378,-0.90951 0.2756,-1.68121 0.41341,-2.31511 0.1378,-0.6339 0.30317,-1.36426 0.49609,-2.19108 0.22049,-0.85438 0.42719,-1.70877 0.62012,-2.56315 0.96463,-3.66558 1.80523,-6.79373 2.52181,-9.38444 0.74414,-2.61827 1.37804,-4.74045 1.90169,-6.36654 0.38585,-1.26779 0.89573,-2.72851 1.52962,-4.38216 0.6339,-1.6812 1.39182,-3.5829 2.27377,-5.70508 0.66145,-1.51584 0.99218,-2.70095 0.99218,-3.55533 -0.33073,-1.29536 -0.60633,-2.08084 -0.82682,-2.35645 -0.11024,-0.1378 -0.34451,-0.34451 -0.7028,-0.62012 -0.35829,-0.30317 -0.85438,-0.68902 -1.48828,-1.15755 -0.88194,-0.7717 -1.68121,-1.4745 -2.39779,-2.1084 -0.71658,-0.66146 -1.44694,-1.22645 -2.19108,-1.69498 -0.71658,-0.46854 -1.50206,-0.82683 -2.35644,-1.07487 -0.82683,-0.24805 -1.79145,-0.37207 -2.89388,-0.37207 z" />
    <text
       xml:space="preserve"
       style="font-style:normal;font-variant:normal;font-weight:normal;font-stretch:normal;font-size:84.6667px;font-family:'Segoe Script';-inkscape-font-specification:'Segoe Script, Normal';font-variant-ligatures:normal;font-variant-caps:normal;font-variant-numeric:normal;font-variant-east-asian:normal;text-align:start;letter-spacing:1.5875px;writing-mode:lr-tb;direction:ltr;text-anchor:start;fill:#000000;fill-opacity:1;stroke:none;stroke-width:0.793749;stroke-opacity:1"
       x="68.55864"
       y="181.39406"
       id="text8-1-1"
       inkscape:label="9 b"><tspan
         sodipodi:role="line"
         id="tspan8-6-8"
         style="font-style:normal;font-variant:normal;font-weight:normal;font-stretch:normal;font-size:84.6667px;font-family:'Segoe Script';-inkscape-font-specification:'Segoe Script, Normal';font-variant-ligatures:normal;font-variant-caps:normal;font-variant-numeric:normal;font-variant-east-asian:normal;fill:#000000;stroke:none;stroke-width:0.793749;stroke-opacity:1"
         x="68.55864"
         y="181.39406">9</tspan></text>
    <text
       xml:space="preserve"
       style="font-style:normal;font-variant:normal;font-weight:normal;font-stretch:normal;font-size:67.7333px;font-family:Jokerman;-inkscape-font-specification:'Jokerman, Normal';font-variant-ligatures:normal;font-variant-caps:normal;font-variant-numeric:normal;font-variant-east-asian:normal;text-align:start;letter-spacing:10.5833px;writing-mode:lr-tb;direction:ltr;text-anchor:start;fill:#00aad4;stroke-width:1"
       x="43.362396"
       y="49.930614"
       id="text1"><tspan
         sodipodi:role="line"
         id="tspan1"
         style="stroke-width:1"
         x="43.362396"
         y="49.930614" /></text>
  </g>
  <g
     id="g4"
     inkscape:label="Dot"
     transform="matrix(-0.3,0,0,0.30000003,88.435619,35.2437)">
    <path
       id="path1-6"
       style="fill:#cf0612;fill-opacity:1;stroke-width:0.128973"
       d="m 60.428544,91.877586 a 24.999966,24.999976 0 0 0 -25.00001,25.000004 24.999966,24.999976 0 0 0 25.00001,24.99999 z" />
    <path
       id="path1-1-8"
       style="fill:#ffffff;fill-opacity:1;stroke-width:0.128973"
       d="m 60.428534,91.877587 a 24.999968,24.999977 0 0 1 25,25.000003 24.999968,24.999977 0 0 1 -25,24.99999 z" />
  </g>
  <text
     xml:space="preserve"
     style="font-style:normal;font-variant:normal;font-weight:normal;font-stretch:normal;font-size:33.8667px;font-family:'Covered By Your Grace';-inkscape-font-specification:'Covered By Your Grace, Normal';font-variant-ligatures:normal;font-variant-caps:normal;font-variant-numeric:normal;font-variant-east-asian:normal;text-align:start;letter-spacing:0px;writing-mode:lr-tb;direction:ltr;text-anchor:start;fill:#000000;fill-opacity:1;stroke:none;stroke-width:0.793749;stroke-opacity:1"
     x="48.621586"
     y="61.079109"
     id="text7-7-8"><tspan
       sodipodi:role="line"
       id="tspan7-1-2"
       style="font-style:normal;font-variant:normal;font-weight:normal;font-stretch:normal;font-size:33.8667px;font-family:'Covered By Your Grace';-inkscape-font-specification:'Covered By Your Grace, Normal';font-variant-ligatures:normal;font-variant-caps:normal;font-variant-numeric:normal;font-variant-east-asian:normal;letter-spacing:0px;fill:#000000;stroke-width:0.793749"
       x="48.621586"
       y="61.079109">Onder</tspan></text>
  <text
     xml:space="preserve"
     style="font-style:normal;font-variant:normal;font-weight:normal;font-stretch:normal;font-size:33.8667px;font-family:'Covered By Your Grace';-inkscape-font-specification:'Covered By Your Grace, Normal';font-variant-ligatures:normal;font-variant-caps:normal;font-variant-numeric:normal;font-variant-east-asian:normal;text-align:start;letter-spacing:0px;writing-mode:lr-tb;direction:ltr;text-anchor:start;fill:#ffffff;fill-opacity:1;stroke:none;stroke-width:0.793749;stroke-opacity:1"
     x="47.236336"
     y="59.938728"
     id="text7-5"><tspan
       sodipodi:role="line"
       id="tspan7-5"
       style="font-style:normal;font-variant:normal;font-weight:normal;font-stretch:normal;font-size:33.8667px;font-family:'Covered By Your Grace';-inkscape-font-specification:'Covered By Your Grace, Normal';font-variant-ligatures:normal;font-variant-caps:normal;font-variant-numeric:normal;font-variant-east-asian:normal;letter-spacing:0px;stroke-width:0.793749"
       x="47.236336"
       y="59.938728">On<tspan
   style="font-style:normal;font-variant:normal;font-weight:normal;font-stretch:normal;font-size:33.8667px;font-family:'Covered By Your Grace';-inkscape-font-specification:'Covered By Your Grace, Normal';font-variant-ligatures:normal;font-variant-caps:normal;font-variant-numeric:normal;font-variant-east-asian:normal;letter-spacing:0px;fill:#cf0612;fill-opacity:1;stroke-width:0.793749"
   id="tspan4-17">der</tspan></tspan></text>
  <text
     xml:space="preserve"
     style="font-style:normal;font-variant:normal;font-weight:normal;font-stretch:normal;font-size:33.8667px;font-family:'Covered By Your Grace';-inkscape-font-specification:'Covered By Your Grace, Normal';font-variant-ligatures:normal;font-variant-caps:normal;font-variant-numeric:normal;font-variant-east-asian:normal;text-align:start;letter-spacing:0px;writing-mode:lr-tb;direction:ltr;text-anchor:start;fill:#1a1a1a;fill-opacity:1;stroke:none;stroke-width:0.749982;stroke-opacity:1"
     x="22.017773"
     y="33.336403"
     id="text118-1"><tspan
       sodipodi:role="line"
       id="tspan118-1"
       style="font-style:normal;font-variant:normal;font-weight:normal;font-stretch:normal;font-size:33.8667px;font-family:'Covered By Your Grace';-inkscape-font-specification:'Covered By Your Grace, Normal';font-variant-ligatures:normal;font-variant-caps:normal;font-variant-numeric:normal;font-variant-east-asian:normal;letter-spacing:0px;fill:#000000;stroke-width:0.749982"
       x="22.017773"
       y="33.336403">JONGENS</tspan></text>
  <text
     xml:space="preserve"
     style="font-style:normal;font-variant:normal;font-weight:normal;font-stretch:normal;font-size:33.8667px;font-family:'Covered By Your Grace';-inkscape-font-specification:'Covered By Your Grace, Normal';font-variant-ligatures:normal;font-variant-caps:normal;font-variant-numeric:normal;font-variant-east-asian:normal;text-align:start;letter-spacing:0px;writing-mode:lr-tb;direction:ltr;text-anchor:start;fill:#1a1a1a;fill-opacity:1;stroke:none;stroke-width:0.749982;stroke-opacity:1"
     x="20.378332"
     y="32.401405"
     id="text118-8-5"><tspan
       sodipodi:role="line"
       id="tspan118-8-2"
       style="font-style:normal;font-variant:normal;font-weight:normal;font-stretch:normal;font-size:33.8667px;font-family:'Covered By Your Grace';-inkscape-font-specification:'Covered By Your Grace, Normal';font-variant-ligatures:normal;font-variant-caps:normal;font-variant-numeric:normal;font-variant-east-asian:normal;letter-spacing:0px;fill:#000000;stroke-width:0.749982"
       x="20.378332"
       y="32.401405"><tspan
         style="font-style:normal;font-variant:normal;font-weight:normal;font-stretch:normal;font-size:33.8667px;font-family:'Covered By Your Grace';-inkscape-font-specification:'Covered By Your Grace, Normal';font-variant-ligatures:normal;font-variant-caps:normal;font-variant-numeric:normal;font-variant-east-asian:normal;letter-spacing:0px;fill:#ffffff;stroke-width:0.749982"
         id="tspan3-7">JONG</tspan><tspan
         style="font-style:normal;font-variant:normal;font-weight:normal;font-stretch:normal;font-size:33.8667px;font-family:'Covered By Your Grace';-inkscape-font-specification:'Covered By Your Grace, Normal';font-variant-ligatures:normal;font-variant-caps:normal;font-variant-numeric:normal;font-variant-east-asian:normal;letter-spacing:0px;fill:#cf0612;fill-opacity:1;stroke-width:0.749982"
         id="tspan2-6">ENS</tspan></tspan></text>
</svg>
