<?xml version="1.0" encoding="UTF-8" standalone="no"?>
<!-- Created with Inkscape (http://www.inkscape.org/) -->

<svg
   width="150.61409mm"
   height="150.61414mm"
   viewBox="-5 -5 150.61409 150.61414"
   version="1.1"
   id="svg1"
   sodipodi:docname="CMHC Jongens O11.svg"
   inkscape:version="1.4.2 (f4327f4, 2025-05-13)"
   xml:space="preserve"
   xmlns:inkscape="http://www.inkscape.org/namespaces/inkscape"
   xmlns:sodipodi="http://sodipodi.sourceforge.net/DTD/sodipodi-0.dtd"
   xmlns="http://www.w3.org/2000/svg"
   xmlns:svg="http://www.w3.org/2000/svg"><sodipodi:namedview
     id="namedview1"
     pagecolor="#ffffff"
     bordercolor="#000000"
     borderopacity="0.25"
     inkscape:showpageshadow="2"
     inkscape:pageopacity="0.0"
     inkscape:pagecheckerboard="0"
     inkscape:deskcolor="#d1d1d1"
     inkscape:document-units="mm"
     inkscape:lockguides="true"
     inkscape:zoom="2"
     inkscape:cx="447.25"
     inkscape:cy="234.25"
     inkscape:window-width="2880"
     inkscape:window-height="1694"
     inkscape:window-x="-11"
     inkscape:window-y="-11"
     inkscape:window-maximized="1"
     inkscape:current-layer="layer1" /><defs
     id="defs1"><rect
       x="11.313708"
       y="270.11479"
       width="583.36309"
       height="363.45288"
       id="rect1" /><filter
       style="color-interpolation-filters:sRGB;"
       inkscape:label="Drop Shadow"
       id="filter38"
       x="0"
       y="0"
       width="1.0131726"
       height="1.0437718"><feFlood
         result="flood"
         in="SourceGraphic"
         flood-opacity="1.000000"
         flood-color="rgb(0,0,0)"
         id="feFlood37" /><feGaussianBlur
         result="blur"
         in="SourceGraphic"
         stdDeviation="0.000000"
         id="feGaussianBlur37" /><feOffset
         result="offset"
         in="blur"
         dx="1.300000"
         dy="1.300000"
         id="feOffset37" /><feComposite
         result="comp1"
         operator="in"
         in="flood"
         in2="offset"
         id="feComposite37" /><feComposite
         result="comp2"
         operator="over"
         in="SourceGraphic"
         in2="comp1"
         id="feComposite38" /></filter><filter
       style="color-interpolation-filters:sRGB;"
       inkscape:label="Drop Shadow"
       id="filter40"
       x="0"
       y="0"
       width="1.0203242"
       height="1.0437231"><feFlood
         result="flood"
         in="SourceGraphic"
         flood-opacity="1.000000"
         flood-color="rgb(0,0,0)"
         id="feFlood38" /><feGaussianBlur
         result="blur"
         in="SourceGraphic"
         stdDeviation="0.000000"
         id="feGaussianBlur38" /><feOffset
         result="offset"
         in="blur"
         dx="1.300000"
         dy="1.300000"
         id="feOffset38" /><feComposite
         result="comp1"
         operator="in"
         in="flood"
         in2="offset"
         id="feComposite39" /><feComposite
         result="comp2"
         operator="over"
         in="SourceGraphic"
         in2="comp1"
         id="feComposite40" /></filter><filter
       style="color-interpolation-filters:sRGB;"
       inkscape:label="Drop Shadow"
       id="filter42"
       x="0"
       y="0"
       width="1.0524794"
       height="1.0518563"><feFlood
         result="flood"
         in="SourceGraphic"
         flood-opacity="1.000000"
         flood-color="rgb(255,0,0)"
         id="feFlood40" /><feGaussianBlur
         result="blur"
         in="SourceGraphic"
         stdDeviation="0.000000"
         id="feGaussianBlur40" /><feOffset
         result="offset"
         in="blur"
         dx="1.300000"
         dy="1.300000"
         id="feOffset40" /><feComposite
         result="comp1"
         operator="in"
         in="flood"
         in2="offset"
         id="feComposite41" /><feComposite
         result="fbSourceGraphic"
         operator="over"
         in="SourceGraphic"
         in2="comp1"
         id="feComposite42" /><feColorMatrix
         result="fbSourceGraphicAlpha"
         in="fbSourceGraphic"
         values="0 0 0 -1 0 0 0 0 -1 0 0 0 0 -1 0 0 0 0 1 0"
         id="feColorMatrix42" /><feFlood
         id="feFlood42"
         result="flood"
         in="fbSourceGraphic"
         flood-opacity="1.000000"
         flood-color="rgb(255,0,0)" /><feGaussianBlur
         id="feGaussianBlur42"
         result="blur"
         in="fbSourceGraphic"
         stdDeviation="0.000000" /><feOffset
         id="feOffset42"
         result="offset"
         in="blur"
         dx="1.300000"
         dy="1.300000" /><feComposite
         id="feComposite43"
         result="comp1"
         operator="in"
         in="flood"
         in2="offset" /><feComposite
         id="feComposite44"
         result="comp2"
         operator="over"
         in="fbSourceGraphic"
         in2="comp1" /></filter></defs><g
     inkscape:label="Layer 1"
     inkscape:groupmode="layer"
     id="layer1"
     transform="translate(-31.164478,-44.876449)"><g
       id="g3"
       transform="matrix(3,0,0,3,-202.96666,-230.46349)"
       inkscape:label="Round Logo"><path
         id="path1"
         style="fill:#cf0612;fill-opacity:1;stroke-width:0.128973"
         d="m 101.4794,90.215667 a 24.999966,24.999976 0 0 0 -25.000008,25.000003 24.999966,24.999976 0 0 0 25.000008,25 z" /><path
         id="path1-1"
         style="fill:#ffffff;fill-opacity:1;stroke-width:0.128973"
         d="m 101.47939,90.215668 a 24.999968,24.999977 0 0 1 25,25.000002 24.999968,24.999977 0 0 1 -25,25 z" /><ellipse
         style="fill:none;fill-opacity:1;stroke:#000000;stroke-width:0.333333;stroke-dasharray:none;stroke-opacity:1"
         id="path1-8"
         cx="101.47939"
         cy="115.21567"
         rx="24.93568"
         ry="24.935688" /></g></g><g
     id="g4"
     inkscape:label="Dot"
     transform="matrix(-0.3,0,0,0.30000003,88.435619,44.768706)"><path
       id="path1-6"
       style="fill:#cf0612;fill-opacity:1;stroke-width:0.128973"
       d="m 60.428544,91.877586 a 24.999966,24.999976 0 0 0 -25.00001,25.000004 24.999966,24.999976 0 0 0 25.00001,24.99999 z" /><path
       id="path1-1-8"
       style="fill:#ffffff;fill-opacity:1;stroke-width:0.128973"
       d="m 60.428534,91.877587 a 24.999968,24.999977 0 0 1 25,25.000003 24.999968,24.999977 0 0 1 -25,24.99999 z" /></g><text
     xml:space="preserve"
     style="font-style:normal;font-variant:normal;font-weight:normal;font-stretch:normal;font-size:33.8667px;font-family:'Covered By Your Grace';-inkscape-font-specification:'Covered By Your Grace, Normal';font-variant-ligatures:normal;font-variant-caps:normal;font-variant-numeric:normal;font-variant-east-asian:normal;text-align:start;letter-spacing:0px;writing-mode:lr-tb;direction:ltr;text-anchor:start;fill:#ffffff;fill-opacity:1;stroke:none;stroke-width:0.793749;stroke-opacity:1;filter:url(#filter40)"
     x="45.242558"
     y="67.50206"
     id="text7-5"><tspan
       sodipodi:role="line"
       id="tspan7-5"
       style="font-style:normal;font-variant:normal;font-weight:normal;font-stretch:normal;font-size:33.8667px;font-family:'Covered By Your Grace';-inkscape-font-specification:'Covered By Your Grace, Normal';font-variant-ligatures:normal;font-variant-caps:normal;font-variant-numeric:normal;font-variant-east-asian:normal;letter-spacing:0px;stroke-width:0.793749"
       x="45.242558"
       y="67.50206">On<tspan
   style="font-style:normal;font-variant:normal;font-weight:normal;font-stretch:normal;font-size:33.8667px;font-family:'Covered By Your Grace';-inkscape-font-specification:'Covered By Your Grace, Normal';font-variant-ligatures:normal;font-variant-caps:normal;font-variant-numeric:normal;font-variant-east-asian:normal;letter-spacing:0px;fill:#cf0612;fill-opacity:1;stroke-width:0.793749"
   id="tspan4-17">der</tspan></tspan></text><text
     xml:space="preserve"
     style="font-style:normal;font-variant:normal;font-weight:normal;font-stretch:normal;font-size:33.8667px;font-family:'Covered By Your Grace';-inkscape-font-specification:'Covered By Your Grace, Normal';font-variant-ligatures:normal;font-variant-caps:normal;font-variant-numeric:normal;font-variant-east-asian:normal;text-align:start;letter-spacing:0px;writing-mode:lr-tb;direction:ltr;text-anchor:start;fill:#1a1a1a;fill-opacity:1;stroke:none;stroke-width:0.749982;stroke-opacity:1;filter:url(#filter38)"
     x="17.262024"
     y="39.029297"
     id="text118-8-5"><tspan
       sodipodi:role="line"
       id="tspan118-8-2"
       style="font-style:normal;font-variant:normal;font-weight:normal;font-stretch:normal;font-size:33.8667px;font-family:'Covered By Your Grace';-inkscape-font-specification:'Covered By Your Grace, Normal';font-variant-ligatures:normal;font-variant-caps:normal;font-variant-numeric:normal;font-variant-east-asian:normal;letter-spacing:0px;fill:#000000;stroke-width:0.749982"
       x="17.262024"
       y="39.029297"><tspan
         style="font-style:normal;font-variant:normal;font-weight:normal;font-stretch:normal;font-size:33.8667px;font-family:'Covered By Your Grace';-inkscape-font-specification:'Covered By Your Grace, Normal';font-variant-ligatures:normal;font-variant-caps:normal;font-variant-numeric:normal;font-variant-east-asian:normal;letter-spacing:0px;fill:#ffffff;stroke-width:0.749982"
         id="tspan3-7">JONG</tspan><tspan
         style="font-style:normal;font-variant:normal;font-weight:normal;font-stretch:normal;font-size:33.8667px;font-family:'Covered By Your Grace';-inkscape-font-specification:'Covered By Your Grace, Normal';font-variant-ligatures:normal;font-variant-caps:normal;font-variant-numeric:normal;font-variant-east-asian:normal;letter-spacing:0px;fill:#cf0612;fill-opacity:1;stroke-width:0.749982"
         id="tspan2-6">ENS</tspan></tspan></text><text
     xml:space="preserve"
     transform="matrix(0.26458333,0,0,0.26458333,-5,-5)"
     id="text1"
     style="fill:#ffffff;text-orientation:auto;-inkscape-font-specification:'Covered By Your Grace, Normal';font-family:'Covered By Your Grace';font-size:42.66666667px;letter-spacing:-40px;stroke:#9f0000;stroke-width:3.77952756;text-align:start;writing-mode:lr-tb;direction:ltr;stroke-dasharray:none;fill-opacity:1;white-space:pre;shape-inside:url(#rect1)" /><path
     style="fill:#ffffff;stroke-width:0.427768"
     d="m 58.451482,96.624384 c 0.06657,-0.736498 0.191631,-2.08438 0.277915,-2.995305 0.0863,-0.910873 0.21754,-2.300434 0.291599,-3.087915 0.144844,-1.251519 0.235316,-2.446763 0.03553,-3.690071 -0.528816,-2.60928 -2.261769,-3.445425 -3.98567,-3.479909 -1.598063,-0.0318 -5.497727,2.089254 -4.065824,4.479221 0.280487,0.468157 0.848059,0.723725 1.073845,0.697895 l 0.483027,-0.08106 0.533815,-0.29855 c 0.389278,-0.239278 0.813249,-0.556518 0.995144,-0.741763 0.737689,-0.752032 1.700005,-0.463934 1.687527,0.591914 -0.01121,0.962092 -0.355456,5.746875 -0.489764,8.832289 -0.3796,8.71985 -0.690508,11.37855 -1.234913,20.08976 -0.09558,1.42855 -0.355451,8.46967 -0.559093,10.95068 -9.88e-4,0.0759 -0.322908,3.19304 -0.384524,3.71035 -0.06162,0.51732 -0.127198,1.12714 -0.145756,1.35518 -0.01851,0.22807 -0.05169,0.61543 -0.07366,0.86081 -0.101759,1.1367 0.130612,1.36889 1.255614,1.25469 1.160828,-0.11781 1.379916,-0.23302 1.313499,-0.69124 -0.02242,-0.15483 -0.03654,-0.4226 -0.03107,-0.59476 0.0052,-0.17203 0.02424,-0.88726 0.02758,-1.5893 0.01668,-3.61722 0.152429,-4.97665 0.38314,-7.1038 0.09123,-0.84115 0.203308,-2.21515 0.283719,-3.04991 0.780715,-8.47264 1.559461,-16.94455 2.328782,-25.418526 z"
     id="path1-4-5-0"
     sodipodi:nodetypes="ssscsssccsssssssssssssss" /><path
     style="fill:#cf0612;fill-opacity:1;stroke-width:0.427768"
     d="m 89.540023,97.021259 c 0.0666,-0.736498 0.19163,-2.08438 0.27792,-2.995305 0.0863,-0.910873 0.21754,-2.300434 0.29159,-3.087915 0.14485,-1.251519 0.23532,-2.446763 0.0355,-3.690071 -0.52881,-2.60928 -2.26176,-3.445425 -3.98567,-3.479909 -1.59806,-0.0318 -5.49772,2.089254 -4.06582,4.479221 0.28049,0.468157 0.84806,0.723725 1.07385,0.697895 l 0.48302,-0.08106 0.53382,-0.29855 c 0.38928,-0.239278 0.81325,-0.556518 0.99514,-0.741763 0.73769,-0.752032 1.70001,-0.463934 1.68753,0.591914 -0.0112,0.962092 -0.35546,5.746875 -0.48977,8.832287 -0.3796,8.719847 -0.6905,11.378547 -1.23491,20.089757 -0.0956,1.42855 -0.35545,8.46967 -0.55909,10.95068 -9.9e-4,0.0759 -0.32291,3.19304 -0.38453,3.71035 -0.0616,0.51732 -0.12719,1.12714 -0.14575,1.35518 -0.0185,0.22807 -0.0517,0.61543 -0.0737,0.86081 -0.10176,1.1367 0.13061,1.36889 1.25561,1.25469 1.16083,-0.11781 1.37992,-0.23302 1.3135,-0.69124 -0.0224,-0.15483 -0.0365,-0.4226 -0.0311,-0.59476 0.005,-0.17203 0.0242,-0.88726 0.0276,-1.5893 0.0167,-3.61722 0.15243,-4.97665 0.38314,-7.1038 0.0912,-0.84115 0.20331,-2.21515 0.28372,-3.04991 0.78072,-8.47264 1.55946,-16.94455 2.32878,-25.418521 z"
     id="path1-4-5-4"
     sodipodi:nodetypes="ssscsssccsssssssssssssss" /><path
     style="fill:#1a1a1a;stroke-width:0.427768"
     d="m 89.143608,96.375642 c 0.06657,-0.736498 0.191631,-2.08438 0.277915,-2.995305 0.0863,-0.910873 0.21754,-2.300434 0.291599,-3.087915 0.144844,-1.251519 0.235316,-2.446763 0.03553,-3.690071 -0.528816,-2.60928 -2.261769,-3.445425 -3.98567,-3.479909 -1.598063,-0.0318 -5.497727,2.089254 -4.065824,4.479221 0.280487,0.468157 0.848059,0.723725 1.073845,0.697895 l 0.483027,-0.08106 0.533815,-0.29855 c 0.389278,-0.239278 0.813249,-0.556518 0.995144,-0.741763 0.737689,-0.752032 1.700005,-0.463934 1.687527,0.591914 -0.01121,0.962092 -0.355456,5.746875 -0.489764,8.832287 -0.3796,8.719834 -0.690508,11.378534 -1.234913,20.089744 -0.09558,1.42855 -0.355451,8.46967 -0.559093,10.95068 -9.88e-4,0.0759 -0.322908,3.19304 -0.384524,3.71035 -0.06162,0.51732 -0.127198,1.12714 -0.145756,1.35518 -0.01851,0.22807 -0.05169,0.61543 -0.07366,0.86081 -0.101759,1.1367 0.130612,1.36889 1.255614,1.25469 1.160828,-0.11781 1.379916,-0.23302 1.313499,-0.69124 -0.02242,-0.15483 -0.03654,-0.4226 -0.03107,-0.59476 0.0052,-0.17203 0.02424,-0.88726 0.02758,-1.5893 0.01668,-3.61722 0.152429,-4.97665 0.38314,-7.1038 0.09123,-0.84115 0.203308,-2.21515 0.283719,-3.04991 0.780715,-8.47264 1.559461,-16.94455 2.328782,-25.418508 z"
     id="path1-4"
     sodipodi:nodetypes="ssscsssccsssssssssssssss" /><path
     style="fill:#1a1a1a;stroke-width:0.427768"
     d="m 57.922315,96.227511 c 0.06657,-0.736498 0.191631,-2.08438 0.277915,-2.995305 0.0863,-0.910873 0.21754,-2.300434 0.291599,-3.087915 0.144844,-1.251519 0.235316,-2.446763 0.03553,-3.690071 -0.528816,-2.60928 -2.261769,-3.445425 -3.98567,-3.479909 -1.598063,-0.0318 -5.497727,2.089254 -4.065824,4.479221 0.280487,0.468157 0.848059,0.723725 1.073845,0.697895 l 0.483027,-0.08106 0.533815,-0.29855 c 0.389278,-0.239278 0.813249,-0.556518 0.995144,-0.741763 0.737689,-0.752032 1.700005,-0.463934 1.687527,0.591914 -0.01121,0.962092 -0.355456,5.746875 -0.489764,8.832287 -0.3796,8.719845 -0.690508,11.378545 -1.234913,20.089755 -0.09558,1.42855 -0.355451,8.46967 -0.559093,10.95068 -9.88e-4,0.0759 -0.322908,3.19304 -0.384524,3.71035 -0.06162,0.51732 -0.127198,1.12714 -0.145756,1.35518 -0.01851,0.22807 -0.05169,0.61543 -0.07366,0.86081 -0.101759,1.1367 0.130612,1.36889 1.255614,1.25469 1.160828,-0.11781 1.379916,-0.23302 1.313499,-0.69124 -0.02242,-0.15483 -0.03654,-0.4226 -0.03107,-0.59476 0.0052,-0.17203 0.02424,-0.88726 0.02758,-1.5893 0.01668,-3.61722 0.152429,-4.97665 0.38314,-7.1038 0.09123,-0.84115 0.203308,-2.21515 0.283719,-3.04991 0.780715,-8.47264 1.559461,-16.94455 2.328782,-25.418519 z"
     id="path1-4-5"
     sodipodi:nodetypes="ssscsssccsssssssssssssss" /></svg>
