<?xml version="1.0" encoding="UTF-8" standalone="no"?>
<!-- Created with Inkscape (http://www.inkscape.org/) -->

<svg
   width="11.583359mm"
   height="17.217552mm"
   viewBox="0 0 11.583359 17.217552"
   version="1.1"
   id="svg1"
   inkscape:version="1.4.2 (f4327f4, 2025-05-13)"
   sodipodi:docname="Hockey sticks.svg"
   xmlns:inkscape="http://www.inkscape.org/namespaces/inkscape"
   xmlns:sodipodi="http://sodipodi.sourceforge.net/DTD/sodipodi-0.dtd"
   xmlns="http://www.w3.org/2000/svg"
   xmlns:svg="http://www.w3.org/2000/svg">
  <sodipodi:namedview
     id="namedview1"
     pagecolor="#ffffff"
     bordercolor="#000000"
     borderopacity="0.25"
     inkscape:showpageshadow="2"
     inkscape:pageopacity="0.0"
     inkscape:pagecheckerboard="0"
     inkscape:deskcolor="#d1d1d1"
     inkscape:document-units="mm"
     inkscape:zoom="1.2587753"
     inkscape:cx="-20.257786"
     inkscape:cy="17.080094"
     inkscape:window-width="2880"
     inkscape:window-height="1694"
     inkscape:window-x="-11"
     inkscape:window-y="-11"
     inkscape:window-maximized="1"
     inkscape:current-layer="layer1" />
  <defs
     id="defs1" />
  <g
     inkscape:label="Layer 1"
     inkscape:groupmode="layer"
     id="layer1"
     transform="translate(-110.33125,-143.93333)">
    <g
       id="layer1-5"
       transform="matrix(0.16411497,0,0,0.16411497,101.40051,133.75949)"
       style="fill:#1a1a1a">
      <path
         style="fill:#1a1a1a"
         d="m 57.888916,166.60251 c -1.35793,-0.54317 -1.9848,-0.88047 -2.75166,-1.48058 l -0.71967,-0.56318 v -0.56667 c 0,-0.42447 0.24585,-0.89965 0.97974,-1.89366 0.53886,-0.72985 1.15467,-1.61275 1.36848,-1.962 0.2138,-0.34925 0.44229,-0.635 0.50775,-0.635 0.0655,0 0.24397,-0.20955 0.3967,-0.46567 0.15273,-0.25611 0.70519,-0.99906 1.22769,-1.651 0.5225,-0.65193 1.37595,-1.83303 1.89655,-2.62466 1.23211,-1.87357 1.76534,-2.6574 2.9951,-4.40267 1.05894,-1.50284 5.72466,-8.41794 8.626,-12.78467 0.9282,-1.397 1.84833,-2.7686 2.04473,-3.048 0.1964,-0.2794 1.40992,-2.0701 2.6967,-3.97933 1.28677,-1.90923 3.30716,-4.90661 4.48974,-6.66083 1.18259,-1.75423 2.26445,-3.36526 2.40415,-3.58008 0.1397,-0.21482 0.5207,-0.79043 0.84667,-1.27914 0.65842,-0.98714 0.66436,-1.19427 0.0556,-1.93705 -0.2312,-0.2821 -0.92397,-1.2368 -1.5395,-2.12157 -0.61552,-0.88477 -1.85044,-2.59927 -2.74426,-3.81 -0.89382,-1.21073 -1.92625,-2.62043 -2.29429,-3.13267 -0.36803,-0.51223 -0.72942,-1.00753 -0.80309,-1.10066 -0.23969,-0.30304 -5.77466,-7.859408 -9.42666,-12.869338 -1.01835,-1.397 -2.88856,-3.9497 -4.15603,-5.67267 -1.26747,-1.72297 -3.20012,-4.35187 -4.29478,-5.842 -2.08049,-2.83214 -3.4821,-5.05995 -3.99502,-6.35 -0.16664,-0.4191 -0.38007,-0.9525 -0.47429,-1.18533 -1.68258,-4.15776 0.359942,-9.448528 3.77601,-11.588842 3.166413,-1.983893 13.53498,-2.415708 13.53498,4.097377 0,1.275817 -0.831163,2.470183 -1.31496,2.689705 l -1.065889,0.418075 -1.429151,0.04078 c -1.06819,-0.0143 -2.2995,-0.13887 -2.88684,-0.29212 -2.38285,-0.62175 -3.36193,0.70909 -2.06833,2.81146 0.52915,0.85998 3.11306,4.7338 8.61933,12.92216 1.44313,2.14607 2.78168,4.12727 2.97455,4.40267 0.38569,0.5507 1.56031,2.31719 1.82796,2.74902 0.0931,0.15026 0.22875,0.35357 0.30138,0.45178 0.32731,0.44263 2.6947,3.98884 3.1714,4.75058 0.29142,0.46567 1.47407,2.218273 2.62812,3.894673 1.15404,1.6764 2.975424,4.41365 4.09468,6.051 3.260267,4.76941 2.180191,3.72338 3.447386,1.89869 0.279466,-0.40241 2.557284,-3.96613 2.935304,-4.47836 0.37801,-0.51223 1.76061,-2.53153 3.07243,-4.48733 4.387614,-6.541513 6.933154,-10.347743 7.103964,-10.622223 0.0931,-0.14966 0.96366,-1.44038 1.9345,-2.86828 8.51054,-12.51713 10.61194,-15.8171 10.4521,-16.41365 -0.33232,-1.24029 -0.78978,-1.35477 -3.66593,-0.91743 -5.17508,0.78691 -7.66026,-2.27519 -4.78351,-5.893977 0.36031,-0.453249 1.9362,-1.63845 2.17855,-1.63845 0.0619,0 0.42568,-0.143909 0.80841,-0.319797 2.41947,-1.111885 6.11995,-0.82182 9.50122,0.744762 2.49602,1.156438 4.90606,5.438084 4.59197,8.158032 -0.23505,2.03547 -0.31547,2.37617 -0.91005,3.85566 -1.03207,2.5681 -2.02855,4.11088 -6.73112,10.42134 -0.24291,0.32597 -1.27104,1.73567 -2.28473,3.13267 -2.01396,2.7755 -2.2539,3.1037 -4.45666,6.096 -0.82272,1.1176 -1.60448,2.1844 -1.73725,2.37067 -0.13276,0.18627 -1.09852,1.50618 -2.14611,2.933153 -1.0476,1.42696 -2.81912,3.84707 -3.93672,5.37801 -1.1176,1.53094 -2.870204,3.9234 -3.894674,5.31656 -1.02446,1.39317 -2.31986,3.19156 -2.87866,3.99641 -0.5588,0.80486 -1.22555,1.71265 -1.48167,2.01731 -0.72231,0.85923 -0.41421,1.44968 4.2657,8.17491 0.47115,0.67707 0.85663,1.2707 0.85663,1.31919 0,0.0922 0.693244,1.11293 0.855614,1.2598 0.0515,0.0466 0.27606,0.38946 0.49906,0.762 0.223,0.37253 0.44851,0.71543 0.50113,0.762 0.0526,0.0466 0.68196,0.96096 1.39855,2.032 0.71658,1.07103 1.66815,2.48786 2.1146,3.1485 0.44645,0.66065 0.88792,1.3246 0.98105,1.47546 0.0931,0.15085 1.69334,2.52819 3.556,5.28298 1.86267,2.75479 3.61148,5.36743 3.88624,5.80588 0.27477,0.43845 0.92247,1.38114 1.43934,2.09488 0.51686,0.71373 1.0358,1.43763 1.15318,1.60866 0.11738,0.17104 0.57458,0.82343 1.016,1.44978 0.71417,1.01337 1.85713,2.72867 2.32658,3.49161 0.0931,0.15137 0.77893,1.06339 1.524,2.02673 0.74506,0.96334 1.60929,2.10747 1.92049,2.54252 0.31121,0.43505 0.84307,1.172 1.18193,1.63767 1.56975,2.1572 1.38274,2.90205 -1.0105,4.0247 -2.4694,1.15838 -3.0473,1.19038 -3.46452,0.19184 -0.14114,-0.33781 -0.43467,-0.89133 -0.65227,-1.23004 -0.2176,-0.33871 -1.10174,-1.75798 -1.96476,-3.15392 -0.86303,-1.39595 -1.89957,-3.01083 -2.30342,-3.58862 -0.40386,-0.5778 -0.73429,-1.1193 -0.73429,-1.20334 0,-0.084 -0.1524,-0.29072 -0.33866,-0.45929 -0.18627,-0.16857 -0.33867,-0.37014 -0.33867,-0.44793 0,-0.0778 -0.3429,-0.64231 -0.762,-1.25446 -0.4191,-0.61216 -0.762,-1.14588 -0.762,-1.18603 0,-0.0402 -0.43815,-0.67271 -0.97367,-1.40566 -0.53551,-0.73295 -1.92616,-2.64092 -3.09033,-4.23993 -1.16417,-1.599 -3.06917,-4.19785 -4.23333,-5.77522 -1.89713,-2.57048 -3.567834,-4.85402 -8.080354,-11.04432 -0.76542,-1.05002 -1.46377,-1.99419 -1.55187,-2.09816 -0.0881,-0.10397 -0.45245,-0.6075 -0.80966,-1.11894 -0.3572,-0.51144 -0.82195,-1.15027 -1.03278,-1.41963 -0.21082,-0.26935 -0.73265,-0.96597 -1.15962,-1.54806 -0.69047,-0.94131 -1.42039,-1.40694 -1.42039,-0.90609 0,0.0837 -0.70485,1.10281 -1.56633,2.26463 -0.86149,1.16182 -1.68064,2.27996 -1.82034,2.48475 -0.1397,0.2048 -1.0922,1.50258 -2.11666,2.88396 -1.02447,1.38138 -1.97697,2.67819 -2.11667,2.88181 -0.1397,0.20362 -1.18787,1.6396 -2.32926,3.19108 -1.14139,1.55147 -2.77969,3.78945 -3.64066,4.97328 -0.86098,1.18382 -2.59491,3.54602 -3.85319,5.24933 -1.25828,1.7033 -2.47748,3.38214 -2.70934,3.73076 -0.23185,0.34862 -0.4787,0.63436 -0.54855,0.635 -0.0699,6.4e-4 -0.127,0.072 -0.127,0.15852 0,0.0865 -0.2925,0.6009 -0.64999,1.143 -2.45512,3.72294 -4.63273,7.06278 -5.16934,7.92831 -0.34644,0.5588 -0.94238,1.5113 -1.32431,2.11667 -0.38193,0.60536 -0.94139,1.55786 -1.24324,2.11666 -0.63718,1.17954 -0.90034,1.26953 -2.19645,0.75109 z"
         id="path1-4"
         sodipodi:nodetypes="sscssssssssssssssssssssssscsssccssssccssssssccssssssssssssssssssssscsssssssssssssssssssssssssssssssssssssssssssssss" />
    </g>
  </g>
</svg>
